<svg width="291" height="355" viewBox="0 0 291 355" fill="none" xmlns="http://www.w3.org/2000/svg">
<path d="M82.1076 355C55.5579 355 35.2358 347.44 21.1415 332.319C7.04716 317.199 0 295.833 0 268.222V86.7778C0 59.1667 7.04716 37.8009 21.1415 22.6806C35.2358 7.56018 55.5579 0 82.1076 0C108.657 0 128.979 7.56018 143.074 22.6806C157.168 37.8009 164.215 59.1667 164.215 86.7778V268.222C164.215 295.833 157.168 317.199 143.074 332.319C128.979 347.44 108.657 355 82.1076 355ZM82.1076 305.694C100.791 305.694 110.132 294.354 110.132 271.674V83.3264C110.132 60.6458 100.791 49.3056 82.1076 49.3056C63.4245 49.3056 54.0829 60.6458 54.0829 83.3264V271.674C54.0829 294.354 63.4245 305.694 82.1076 305.694Z" fill="#808080" fill-opacity="0.5"/>
<path d="M236.917 86.7778H180.376V48.3194C195.781 48.3194 208.073 47.0046 217.251 44.375C226.756 41.7454 234.295 37.4722 239.867 31.5556C245.439 25.3102 250.356 16.4352 254.617 4.93055H291V350.069H236.917V86.7778Z" fill="#808080" fill-opacity="0.5"/>
</svg>
