<svg width="280" height="342" viewBox="0 0 280 342" fill="none" xmlns="http://www.w3.org/2000/svg">
<path d="M11.135 342C-14.4536 342 -34.0399 334.717 -47.6239 320.15C-61.208 305.583 -68 285 -68 258.4V83.6C-68 57 -61.208 36.4167 -47.6239 21.85C-34.0399 7.28333 -14.4536 0 11.135 0C36.7236 0 56.3099 7.28333 69.8939 21.85C83.478 36.4167 90.27 57 90.27 83.6V258.4C90.27 285 83.478 305.583 69.8939 320.15C56.3099 334.717 36.7236 342 11.135 342ZM11.135 294.5C29.1418 294.5 38.1451 283.575 38.1451 261.725V80.275C38.1451 58.425 29.1418 47.5 11.135 47.5C-6.87177 47.5 -15.8751 58.425 -15.8751 80.275V261.725C-15.8751 283.575 -6.87177 294.5 11.135 294.5Z" fill="#808080" fill-opacity="0.5"/>
<path d="M124.573 301.15C124.573 277.4 128.364 257.133 135.946 240.35C143.528 223.25 157.112 204.408 176.698 183.825C195.968 163.242 209.237 145.667 216.502 131.1C224.084 116.533 227.875 101.333 227.875 85.5C227.875 71.25 225.506 61.4333 220.767 56.05C216.345 50.35 209.71 47.5 200.865 47.5C182.858 47.5 173.855 58.425 173.855 80.275V115.9H124.573V83.6C124.573 56.6833 131.207 36.1 144.475 21.85C157.744 7.28333 177.014 0 202.287 0C227.559 0 246.83 7.28333 260.098 21.85C273.366 36.1 280 56.6833 280 83.6C280 103.867 275.103 123.658 265.31 142.975C255.833 162.292 239.248 184.458 215.555 209.475C200.075 225.942 189.65 239.4 184.28 249.85C178.909 259.983 176.224 270.908 176.224 282.625V289.75H275.261V337.25H124.573V301.15Z" fill="#808080" fill-opacity="0.5"/>
</svg>
