<svg width="411" height="407" viewBox="0 0 411 407" fill="none" xmlns="http://www.w3.org/2000/svg">
<path d="M94.231 407C63.7611 407 40.4385 398.332 24.2631 380.997C8.0877 363.662 0 339.167 0 307.511V99.4889C0 67.8333 8.0877 43.338 24.2631 26.0028C40.4385 8.66759 63.7611 0 94.231 0C124.701 0 148.024 8.66759 164.199 26.0028C180.374 43.338 188.462 67.8333 188.462 99.4889V307.511C188.462 339.167 180.374 363.662 164.199 380.997C148.024 398.332 124.701 407 94.231 407ZM94.231 350.472C115.673 350.472 126.394 337.471 126.394 311.468V95.532C126.394 69.5292 115.673 56.5278 94.231 56.5278C72.7892 56.5278 62.0683 69.5292 62.0683 95.532V311.468C62.0683 337.471 72.7892 350.472 94.231 350.472Z" fill="#808080" fill-opacity="0.5"/>
<path d="M318.462 407C287.992 407 264.857 398.521 249.058 381.563C233.635 364.604 225.923 340.297 225.923 308.642V276.421H284.606V311.468C284.606 337.471 295.327 350.472 316.769 350.472C327.302 350.472 335.201 347.269 340.468 340.862C346.11 334.079 348.932 322.397 348.932 305.815V273.594C348.932 255.506 345.734 242.693 339.339 235.156C332.944 227.242 322.6 223.285 308.305 223.285H287.428V166.757H309.998C322.412 166.757 331.628 163.554 337.646 157.147C344.041 150.741 347.239 140 347.239 124.926V96.0972C347.239 82.5306 344.418 72.544 338.775 66.1375C333.132 59.731 325.609 56.5278 316.205 56.5278C296.268 56.5278 286.299 68.7755 286.299 93.2708V119.274H227.616V98.3583C227.616 66.7028 235.328 42.3958 250.751 25.4375C266.55 8.47917 289.12 0 318.462 0C348.179 0 370.75 8.47917 386.173 25.4375C401.596 42.019 409.307 66.1375 409.307 97.7931V111.925C409.307 133.406 405.734 150.741 398.586 163.931C391.439 176.744 380.342 185.976 365.295 191.629V192.76C381.47 198.789 393.132 208.588 400.279 222.154C407.426 235.721 411 253.056 411 274.16V309.207C411 340.862 403.1 365.169 387.301 382.128C371.878 398.709 348.932 407 318.462 407Z" fill="#808080" fill-opacity="0.5"/>
</svg>
