<svg width="440" height="420" viewBox="0 0 440 420" fill="none" xmlns="http://www.w3.org/2000/svg">
<path d="M97.4031 420C65.9075 420 41.7997 411.056 25.0798 393.167C8.35995 375.278 0 350 0 317.333V102.667C0 70 8.35995 44.7222 25.0798 26.8333C41.7997 8.94444 65.9075 0 97.4031 0C128.899 0 153.007 8.94444 169.726 26.8333C186.446 44.7222 194.806 70 194.806 102.667V317.333C194.806 350 186.446 375.278 169.726 393.167C153.007 411.056 128.899 420 97.4031 420ZM97.4031 361.667C119.567 361.667 130.648 348.25 130.648 321.417V98.5833C130.648 71.75 119.567 58.3333 97.4031 58.3333C75.2395 58.3333 64.1577 71.75 64.1577 98.5833V321.417C64.1577 348.25 75.2395 361.667 97.4031 361.667Z" fill="#808080" fill-opacity="0.5"/>
<path d="M345.513 340.083H223.03V281.75L339.681 5.83333H409.671V281.75H440V340.083H409.671V414.167H345.513V340.083ZM345.513 281.75V122.5H344.347L281.355 281.75H345.513Z" fill="#808080" fill-opacity="0.5"/>
</svg>
