<svg width="1405" height="257" viewBox="0 0 1405 257" fill="none" xmlns="http://www.w3.org/2000/svg">
<g clip-path="url(#clip0_377_36)">
<path d="M208.693 117.573C208.08 117.996 201.866 118.87 194.894 119.511C189.663 119.907 184.458 120.592 179.302 121.565C175.641 122.658 208.08 121.055 214.308 119.831C217.2 119.313 220.124 118.992 223.06 118.87C227.158 118.768 227.435 118.622 225.816 117.588C223.658 116.291 210.53 116.276 208.693 117.573Z" fill="#205080"/>
<path d="M227.538 122.57C229.857 122.57 230.79 122.323 229.623 122.148C228.22 121.99 226.801 122.029 225.408 122.264C224.27 122.497 225.218 122.643 227.538 122.57Z" fill="#205080"/>
<path d="M298.118 42.5126C297.155 42.7894 297.447 42.9788 298.862 42.9788C300.277 42.9788 300.831 42.7748 300.422 42.5126C299.678 42.2445 298.863 42.2445 298.118 42.5126Z" fill="#205080"/>
<path d="M286.231 67.7613C285.078 67.9944 286.026 68.1255 288.346 68.0672C290.665 68.0089 291.613 67.8195 290.446 67.6447C289.043 67.4794 287.623 67.5187 286.231 67.7613Z" fill="#205080"/>
<path d="M291.379 60.4765C290.632 60.2233 289.822 60.2233 289.075 60.4765C288.127 60.7533 288.418 60.9427 289.819 60.9427C291.219 60.9427 291.831 60.6659 291.379 60.4765Z" fill="#205080"/>
<path d="M294.369 68.0235C295.901 68.5083 297.503 68.7396 299.11 68.7083C302.975 68.6208 302.027 68.1838 296.761 67.6884C293.786 67.4116 293.086 67.5136 294.369 68.0235Z" fill="#205080"/>
<path d="M278.252 17.8909C278.252 18.3426 278.821 18.6922 279.477 18.6631C280.134 18.634 280.673 18.2697 280.659 17.8327C280.644 17.3956 280.09 17.0459 279.433 17.0605C278.777 17.0751 278.237 17.4539 278.252 17.8909Z" fill="#205080"/>
<path d="M93.0423 168.827C91.6859 168.827 90.5774 169.25 90.5919 169.702C90.6065 170.153 91.3942 170.474 92.3568 170.445C93.2488 170.451 94.1153 170.147 94.8072 169.585C95.201 169.133 94.4134 168.798 93.0423 168.827Z" fill="#205080"/>
<path d="M58.8534 156.881C58.197 156.881 57.6573 157.274 57.6719 157.711C57.6865 158.148 58.2408 158.498 58.9117 158.483C59.5826 158.469 60.0932 158.09 60.0786 157.653C60.064 157.216 59.5097 156.866 58.8534 156.881Z" fill="#205080"/>
<path d="M75.4519 148.824C75.4519 149.48 76.2979 150.004 77.2897 149.975C78.2816 149.946 79.0838 149.392 79.0546 148.736C79.0254 148.081 78.2086 147.542 77.2168 147.571C76.225 147.6 75.4228 148.168 75.4519 148.824Z" fill="#205080"/>
<path d="M4.28826 147.454C2.49421 146.77 -0.772993 147.833 0.160494 148.78C1.09398 149.727 5.61556 149.713 5.58639 148.693C5.5718 148.285 4.98837 147.717 4.28826 147.454Z" fill="#205080"/>
<path d="M361.843 96.2146C360.705 96.4477 361.653 96.5934 363.972 96.5205C366.291 96.4477 367.225 96.2729 366.058 96.098C364.655 95.9399 363.236 95.9791 361.843 96.2146Z" fill="#205080"/>
<path d="M348.059 95.3406C345.609 95.2531 343.888 95.4571 344.223 95.7922C344.559 96.1273 347.374 96.3021 350.481 96.171C356.402 95.9233 355.513 95.6174 348.059 95.3406Z" fill="#205080"/>
<path d="M653.368 241.892C652.171 241.683 650.947 241.683 649.751 241.892C648.584 242.125 649.255 242.285 651.209 242.256C653.164 242.227 654.185 242.096 653.368 241.892Z" fill="#205080"/>
<path d="M628.062 242.591C626.924 242.824 627.872 242.955 630.191 242.897C632.51 242.839 633.444 242.649 632.277 242.474C630.873 242.316 629.454 242.356 628.062 242.591Z" fill="#205080"/>
<path d="M619.646 242.781C618.651 242.579 617.624 242.603 616.641 242.853C615.824 243.101 616.495 243.261 618.1 243.218C619.704 243.174 620.477 242.97 619.646 242.781Z" fill="#205080"/>
<path d="M861.011 167.472C860.26 167.21 859.442 167.21 858.691 167.472C857.743 167.764 858.035 167.939 859.435 167.939C860.836 167.939 861.419 167.72 861.011 167.472Z" fill="#205080"/>
<path d="M703.514 166.278C705.833 166.278 706.781 166.03 705.614 165.855C704.211 165.69 702.791 165.729 701.399 165.972C700.232 166.19 701.194 166.336 703.514 166.278Z" fill="#205080"/>
<path d="M994.455 141.423C993.303 141.656 994.251 141.802 996.57 141.744C998.89 141.685 999.838 141.481 998.671 141.321C997.268 141.151 995.848 141.185 994.455 141.423Z" fill="#205080"/>
<path d="M286.916 160.785C285.764 161.018 286.712 161.149 289.031 161.091C291.35 161.033 292.298 160.843 291.131 160.669C289.728 160.503 288.308 160.543 286.916 160.785Z" fill="#205080"/>
<path d="M609.363 242.285C608.615 242.032 607.805 242.032 607.058 242.285C606.11 242.562 606.402 242.751 607.802 242.751C609.202 242.751 609.8 242.591 609.363 242.285Z" fill="#205080"/>
<path d="M502.245 248.987C503.704 249.905 505.162 249.614 505.162 248.419C505.162 247.224 497.242 246.452 488.987 246.831C484.961 247.02 485.661 247.195 492.706 247.749C495.915 247.892 499.106 248.306 502.245 248.987Z" fill="#205080"/>
<path d="M573.336 242.329C570.325 242.239 567.31 242.317 564.308 242.562C561.828 242.809 563.87 242.897 568.829 242.766C573.788 242.635 575.743 242.445 573.336 242.329Z" fill="#205080"/>
<path d="M284.757 249.686L288.083 250.313C288.258 250.313 288.374 250.021 288.36 249.584C288.345 249.147 286.901 248.856 285.034 248.943L281.723 249.118L284.757 249.686Z" fill="#205080"/>
<path d="M251.502 237.113C250.773 237.288 256.68 238.366 264.629 239.503C280.79 241.819 283.124 242.038 281.403 241.032C279.9 240.158 253.281 236.662 251.502 237.113Z" fill="#205080"/>
<path d="M245.157 236.21C245.828 236.21 244.996 235.7 243.319 235.117C241.951 234.602 240.526 234.255 239.075 234.083C238.404 234.083 239.235 234.592 240.912 235.175C242.276 235.704 243.703 236.052 245.157 236.21Z" fill="#205080"/>
<path d="M290.796 250.225C291.802 250.589 299.066 250.924 306.927 250.968C314.789 251.012 321.513 251.26 321.892 251.478C322.957 252.148 324.576 251.915 324.547 251.114C324.518 250.313 318.319 250.036 299.212 249.744C293.173 249.642 289.716 249.875 290.796 250.225Z" fill="#205080"/>
<path d="M302.61 243.567C304.215 243.567 304.215 243.436 302.61 242.795C301.443 242.36 300.21 242.128 298.964 242.11C297.359 242.11 297.359 242.241 298.964 242.883C300.13 243.32 301.364 243.552 302.61 243.567Z" fill="#205080"/>
<path d="M476.793 247.647L469.5 247.239C460.967 246.743 438.272 246.437 441.787 246.86C443.115 247.02 448.555 247.341 453.85 247.574C459.159 247.807 466.481 247.923 470.127 247.836L476.793 247.647Z" fill="#205080"/>
<path d="M464.308 170.605C463.117 170.388 461.896 170.388 460.705 170.605C459.538 170.838 460.209 171.013 462.163 170.969C464.118 170.925 465.139 170.809 464.308 170.605Z" fill="#205080"/>
<path d="M704.214 256.84C706.695 257.1 709.195 257.134 711.682 256.942C716.057 256.825 719.923 256.403 720.258 256.009C720.856 255.339 705.337 256.141 704.214 256.84Z" fill="#205080"/>
<path d="M1203.29 99.0268C1202.33 99.3182 1202.62 99.493 1204.04 99.493C1205.45 99.493 1206.01 99.289 1205.6 99.0414C1204.85 98.7745 1204.04 98.7694 1203.29 99.0268Z" fill="#205080"/>
<path d="M1169.89 74.2299C1168.93 74.5067 1169.22 74.6961 1170.64 74.6961C1172.05 74.6961 1172.61 74.4776 1172.2 74.2299C1171.45 73.9618 1170.64 73.9618 1169.89 74.2299Z" fill="#205080"/>
<path d="M1236.64 80.8734C1238.96 80.8734 1239.89 80.6257 1238.72 80.4509C1237.32 80.293 1235.91 80.3322 1234.52 80.5675C1233.37 80.786 1234.32 80.8734 1236.64 80.8734Z" fill="#205080"/>
<path d="M1193.57 98.5018C1192.75 98.7495 1193.42 98.9098 1195.02 98.8661C1196.63 98.8224 1197.34 98.6184 1196.48 98.429C1195.52 98.2402 1194.52 98.265 1193.57 98.5018Z" fill="#205080"/>
<path d="M1243.59 79.5185C1242.63 79.7953 1242.92 79.9847 1244.34 79.9847C1245.75 79.9847 1246.31 79.7807 1245.9 79.5185C1245.15 79.2575 1244.34 79.2575 1243.59 79.5185Z" fill="#205080"/>
<path d="M1308.82 203.254C1305.9 204.828 1307.86 204.711 1311.74 203.152C1313.46 202.453 1313.96 201.943 1312.91 201.972C1311.47 202.143 1310.08 202.577 1308.81 203.254H1308.82Z" fill="#205080"/>
<path d="M1276.11 190.142C1272.63 190.39 1275.48 190.448 1282.42 190.273C1289.36 190.098 1292.21 189.88 1288.74 189.807C1285.27 189.734 1279.56 189.923 1276.11 190.142Z" fill="#205080"/>
<path d="M806.708 71.6801C803.302 71.5938 799.894 71.6813 796.498 71.9424C793.697 72.19 796.002 72.2629 801.632 72.1172C807.262 71.9715 809.479 71.7675 806.708 71.6801Z" fill="#205080"/>
<path d="M1285.59 222.034C1288.15 221.32 1287.22 220.985 1283.15 221.145C1279.97 221.276 1279.69 221.408 1281.69 221.874C1282.97 222.191 1284.29 222.246 1285.59 222.034Z" fill="#205080"/>
<path d="M1344.92 167.298C1346.06 167.882 1347.35 168.13 1348.63 168.012C1350.25 168.012 1351.54 167.575 1351.54 167.123C1351.54 166.671 1349.85 166.365 1347.84 166.424C1345.83 166.482 1344.44 166.832 1344.92 167.298Z" fill="#205080"/>
<path d="M1221.07 119.977C1222.77 119.977 1223.6 118.52 1222.23 117.952C1220.61 117.34 1218.38 118.345 1219.31 119.278C1219.79 119.721 1220.42 119.971 1221.07 119.977Z" fill="#205080"/>
<path d="M291.044 76.5027C291.7 76.2113 292.211 75.6286 292.196 75.2206C292.181 74.8127 291.642 74.4776 290.971 74.4922C290.81 74.4996 290.653 74.5388 290.508 74.6075C290.363 74.6762 290.233 74.773 290.126 74.8923C290.019 75.0116 289.936 75.151 289.884 75.3024C289.831 75.4538 289.809 75.6142 289.818 75.7742C289.81 75.9211 289.841 76.0675 289.91 76.1975C289.979 76.3275 290.082 76.4361 290.209 76.5113C290.335 76.5865 290.48 76.6255 290.627 76.624C290.775 76.6225 290.919 76.5805 291.044 76.5027Z" fill="#205080"/>
<path d="M710.719 83.8745C709.719 83.6776 708.687 83.7075 707.7 83.9619C706.883 84.195 707.568 84.3699 709.158 84.3262C710.748 84.2825 711.55 84.0785 710.719 83.8745Z" fill="#205080"/>
<path d="M759.158 119.249C758.371 118.447 739.876 119.103 738.636 119.977C738.213 120.283 742.808 120.399 748.846 120.254C755.351 120.094 759.581 119.671 759.158 119.249Z" fill="#205080"/>
<path d="M736.901 119.817C736.901 119.03 730.322 118.36 729.928 119.118C729.768 119.438 726.413 119.7 722.475 119.715C718.959 119.682 715.446 119.945 711.973 120.502C709.727 121.026 713.213 121.143 722.782 120.837C730.556 120.604 736.915 120.21 736.901 119.817Z" fill="#205080"/>
<path d="M796.177 82.4323C795.181 82.2424 794.155 82.2723 793.172 82.5198C792.355 82.7674 793.041 82.9277 794.631 82.884C796.221 82.8403 797.008 82.6363 796.177 82.4323Z" fill="#205080"/>
<path d="M679.666 74.3027C678.914 74.0495 678.099 74.0495 677.347 74.3027C676.399 74.5795 676.69 74.7689 678.091 74.7689C679.491 74.7689 680.074 74.5649 679.666 74.3027Z" fill="#205080"/>
<path d="M838.315 82.0826C835.707 81.9758 833.096 82.044 830.497 82.2865C828.353 82.5196 830.118 82.6216 834.421 82.5196C838.723 82.4177 840.474 82.2137 838.315 82.0826Z" fill="#205080"/>
<path d="M790.182 82.6069C788.991 82.3901 787.771 82.3901 786.579 82.6069C785.413 82.84 786.084 83.0003 788.038 82.9711C789.992 82.942 791.013 82.7963 790.182 82.6069Z" fill="#205080"/>
<path d="M785.588 72.3358C784.837 72.0749 784.02 72.0749 783.269 72.3358C782.321 72.6272 782.612 72.802 784.012 72.802C785.413 72.802 785.996 72.5835 785.588 72.3358Z" fill="#205080"/>
<path d="M1318.43 226.565C1320.71 225.545 1316.89 226.011 1301.76 228.634C1280.97 232.278 1259.94 234.449 1238.84 235.132C1234.52 235.179 1230.22 235.456 1225.93 235.962C1225.03 236.355 1205.72 235.729 1195.68 234.986C1191.73 234.68 1191.3 234.811 1192 236.02C1192.7 237.23 1192.33 237.346 1189.29 237.026C1187.32 236.807 1179.5 236.589 1171.91 236.53C1164.31 236.472 1154.04 236.326 1149.08 236.224C1144.12 236.122 1140.52 236.297 1141.06 236.632C1141.8 237.032 1142.62 237.247 1143.46 237.259C1144.24 237.259 1149.76 237.404 1155.73 237.565C1161.7 237.725 1170.62 237.958 1175.57 238.046C1178.76 238.018 1181.95 238.198 1185.12 238.585C1186.16 239.24 1237.38 237.565 1252.43 236.385C1268.93 235.088 1277.32 234.33 1284.52 233.471C1291.35 232.582 1316.17 227.541 1318.43 226.565Z" fill="#205080"/>
<path d="M990.167 247.472C988.709 247.705 989.627 247.836 992.267 247.778C994.908 247.719 996.133 247.53 994.981 247.355C993.377 247.193 991.761 247.232 990.167 247.472Z" fill="#205080"/>
<path d="M1012.75 247.647L1005.45 247.923L1013.9 248.215C1018.54 248.375 1024.22 248.477 1026.54 248.448C1030.25 248.375 1030.1 248.317 1025.32 247.88C1021.13 247.584 1016.94 247.506 1012.75 247.647Z" fill="#205080"/>
<path d="M1126.14 243.116C1125.19 243.392 1125.48 243.582 1126.88 243.582C1128.28 243.582 1128.85 243.378 1128.44 243.116C1127.69 242.863 1126.88 242.863 1126.14 243.116Z" fill="#205080"/>
<path d="M339.322 43.5616C329.74 42.906 307.992 43.0371 308.022 43.751C308.022 44.0861 314.395 44.3046 322.184 44.2318C347.374 44.0278 346.586 44.057 339.322 43.5616Z" fill="#205080"/>
<path d="M1044.95 248.317C1041.55 248.062 1038.13 248.155 1034.74 248.594C1033.95 248.943 1037.37 249.249 1042.33 249.278C1064.2 249.38 1076 248.914 1091.38 247.312C1100.42 246.379 1107.99 245.505 1108.19 245.359C1108.4 245.214 1101.89 245.286 1093.74 245.52C1084.77 245.782 1081.07 246.088 1084.36 246.306L1089.79 246.656L1082.12 247.443C1069.76 248.49 1057.35 248.782 1044.95 248.317Z" fill="#205080"/>
<path d="M923.962 246.816C923.014 247.093 923.306 247.283 924.706 247.283C926.107 247.283 926.675 247.079 926.267 246.816C925.521 246.555 924.708 246.555 923.962 246.816Z" fill="#205080"/>
<path d="M948.583 246.962C947.431 247.195 948.394 247.34 950.698 247.282C953.003 247.224 953.965 247.034 952.798 246.86C951.396 246.69 949.976 246.724 948.583 246.962Z" fill="#205080"/>
<path d="M1116.22 244.5C1119.53 244.412 1121.02 244.223 1119.53 244.077C1117.52 243.94 1115.51 243.989 1113.52 244.223C1111.7 244.456 1112.91 244.573 1116.22 244.5Z" fill="#205080"/>
<path d="M897.387 246.729C896.57 246.976 897.256 247.137 898.846 247.093C900.436 247.049 901.179 246.845 900.304 246.641C899.337 246.464 898.342 246.494 897.387 246.729Z" fill="#205080"/>
<path d="M607.715 120.341C606.969 120.079 606.156 120.079 605.41 120.341C604.462 120.633 604.754 120.807 606.154 120.807C607.554 120.807 608.123 120.589 607.715 120.341Z" fill="#205080"/>
<path d="M863.592 245.957C861.448 246.19 863.213 246.292 867.516 246.175C871.819 246.059 873.569 245.869 871.425 245.753C868.812 245.646 866.196 245.714 863.592 245.957Z" fill="#205080"/>
<path d="M878.732 246.394C877.565 246.627 878.236 246.787 880.191 246.743C882.145 246.699 883.108 246.525 882.306 246.321C881.119 246.141 879.91 246.166 878.732 246.394Z" fill="#205080"/>
<path d="M523.044 171.843C512.834 171.916 507.088 172.135 510.413 172.339C516.86 172.747 543.071 172.47 542.225 172.004C541.933 171.858 533.313 171.785 523.044 171.843Z" fill="#205080"/>
<path d="M254.93 159.284C254.18 159.017 253.36 159.017 252.61 159.284C251.662 159.561 251.954 159.736 253.354 159.751C254.754 159.765 255.367 159.547 254.93 159.284Z" fill="#205080"/>
<path d="M251.239 161.616C251.867 162.242 257.759 162.402 257.745 161.79C256.592 161.407 255.385 161.215 254.171 161.222C252.217 161.091 250.904 161.266 251.239 161.616Z" fill="#205080"/>
<path d="M199.825 158.804C199.825 158.367 199.27 158.017 198.599 158.032C197.929 158.046 197.403 158.425 197.418 158.862C197.433 159.299 197.987 159.649 198.658 159.634C199.329 159.62 199.839 159.241 199.825 158.804Z" fill="#205080"/>
<path d="M104.346 194.105C104.521 194.105 104.638 193.842 104.623 193.405C104.609 192.968 102.581 192.706 100.087 192.823L95.5803 193.056L99.8102 193.537C102.217 193.799 104.186 194.061 104.346 194.105Z" fill="#205080"/>
<path d="M152.319 152.335C151.572 152.082 150.762 152.082 150.014 152.335C149.066 152.627 149.343 152.802 150.758 152.802C152.173 152.802 152.727 152.598 152.319 152.335Z" fill="#205080"/>
<path d="M258.124 118.753C261.318 118.666 263.55 118.36 263.068 118.054C262.164 117.486 253.763 117.879 252.858 118.52C252.537 118.753 254.915 118.841 258.124 118.753Z" fill="#205080"/>
<path d="M256.986 112.678C256.241 112.41 255.426 112.41 254.681 112.678C253.733 112.955 254.025 113.144 255.425 113.144C256.826 113.144 257.394 112.926 256.986 112.678Z" fill="#205080"/>
<path d="M589.059 119.977C588.071 119.751 587.043 119.751 586.055 119.977C585.238 120.225 585.923 120.385 587.513 120.341C589.103 120.298 589.905 120.21 589.059 119.977Z" fill="#205080"/>
<path d="M236.639 116.422C235.894 116.154 235.079 116.154 234.334 116.422C233.372 116.699 233.663 116.888 235.078 116.888C236.493 116.888 237.047 116.685 236.639 116.422Z" fill="#205080"/>
<path d="M245.42 117.296C247.082 117.296 247.753 117.049 246.878 116.845C245.877 116.655 244.847 116.685 243.859 116.932C243.086 117.296 243.771 117.398 245.42 117.296Z" fill="#205080"/>
<path d="M657.612 168.725C656.65 169.002 656.941 169.192 658.342 169.192C659.742 169.192 660.325 168.988 659.917 168.725C659.172 168.457 658.357 168.457 657.612 168.725Z" fill="#205080"/>
<path d="M571.221 167.968C570.944 168.172 572.388 168.303 574.445 168.245C575.994 168.321 577.537 167.994 578.922 167.298C579.622 166.482 572.432 167.109 571.221 167.968Z" fill="#205080"/>
<path d="M581.169 171.552C579.973 171.328 578.747 171.328 577.551 171.552C576.399 171.785 577.07 171.945 579.01 171.902C580.95 171.858 581.985 171.756 581.169 171.552Z" fill="#205080"/>
<path d="M562.353 168.026C561.536 168.274 562.222 168.434 563.812 168.39C565.401 168.347 566.131 168.143 565.27 167.953C564.304 167.767 563.309 167.792 562.353 168.026Z" fill="#205080"/>
<path d="M497.665 171.872C496.615 171.493 489.293 171.187 481.387 171.173H467.021L479.681 171.581C486.638 171.814 493.158 172.12 494.15 172.266C495.35 172.427 496.557 172.524 497.767 172.557C499.313 172.557 499.299 172.455 497.665 171.872Z" fill="#205080"/>
<path d="M611.696 166.584C612.222 166.919 618.873 167.137 626.486 167.079C634.1 167.021 642.75 166.948 645.725 166.904H651.151L645.112 166.423C636.58 165.695 610.544 165.855 611.696 166.584Z" fill="#205080"/>
<path d="M597.227 166.278C595.769 166.511 596.965 166.628 599.955 166.555C602.945 166.482 604.141 166.292 602.639 166.132C600.835 165.991 599.021 166.04 597.227 166.278Z" fill="#205080"/>
<path d="M267.036 125.251C266.288 124.998 265.478 124.998 264.731 125.251C263.783 125.528 264.075 125.717 265.475 125.717C266.875 125.717 267.444 125.513 267.036 125.251Z" fill="#205080"/>
<path d="M583.006 166.409C582.394 166.409 581.883 166.803 581.898 167.24C581.912 167.677 582.773 168.026 583.808 167.997C584.844 167.968 585.34 167.589 584.917 167.167C584.393 166.691 583.714 166.422 583.006 166.409Z" fill="#205080"/>
<path d="M588.928 168.114C587.98 168.405 588.272 168.58 589.672 168.58C591.072 168.58 591.656 168.376 591.247 168.114C590.495 167.861 589.681 167.861 588.928 168.114Z" fill="#205080"/>
<path d="M710.238 241.731C710.786 242.214 711.49 242.483 712.221 242.489C712.878 242.489 713.126 242.154 712.776 241.79C711.405 240.406 741.947 240.77 781.329 242.606C789.292 242.97 807.452 243.072 821.687 242.824C874.605 241.892 878.149 241.906 922.329 243.349C930.278 243.596 939.234 243.844 942.224 243.873C945.141 243.873 953.586 243.684 960.865 243.349C968.143 243.014 1001.98 241.892 1036.05 240.799C1088.83 239.124 1138.88 236.778 1125.14 236.632C1118.1 236.545 1121.66 235.802 1137.12 234.097C1147.06 232.991 1157.06 232.505 1167.06 232.64C1175.35 232.713 1187.82 232.728 1194.78 232.64C1201.73 232.553 1216.1 232.64 1226.69 232.64C1245.65 232.713 1249.59 232.436 1282.57 228.838C1301.79 226.74 1314.92 223.768 1314.85 221.553C1314.85 220.009 1311.14 220.096 1303.66 221.815C1300.5 222.555 1297.29 223.042 1294.06 223.272C1291.95 223.272 1285.09 224.015 1278.82 224.802C1268.77 226.07 1268.14 226.259 1273.45 226.259H1279.48L1270.87 227.527C1252 230.309 1206.81 232.378 1208.56 230.44C1208.97 229.945 1216.8 229.377 1227.52 228.983C1245.97 228.415 1270.49 226.784 1263.8 226.565C1260.57 226.448 1260.78 226.346 1265.58 225.516C1267.8 225.209 1269.99 224.642 1272.08 223.826C1273.2 223.281 1274.42 222.992 1275.67 222.981C1277.24 222.981 1277.61 222.704 1276.67 222.34C1274.92 221.655 1260.92 222.078 1229.39 223.797L1205.93 225.064L1208.06 223.374C1209.78 222.005 1211.97 221.582 1219.62 221.145C1226.22 220.781 1229.68 220.198 1231.28 219.222C1234.25 217.979 1237.38 217.16 1240.58 216.789C1244.81 216.148 1248.55 215.055 1249.87 214.065C1250.83 213.263 1251.95 212.682 1253.16 212.36C1254.3 212.36 1261.91 208.893 1264.99 207.057C1265.95 206.474 1271.35 205.6 1276.98 205.177C1292.41 203.968 1297.61 203.196 1302.19 201.462C1305.69 200.137 1309.87 199.758 1328.6 199.044C1348.2 198.286 1367.49 196.509 1369.22 195.285C1370.14 194.629 1365.66 194.892 1358.53 195.926C1349.78 197.194 1317.69 198.621 1318.4 197.718C1319.19 197.182 1320.12 196.907 1321.07 196.931C1322.94 196.723 1324.77 196.272 1326.51 195.591C1328.05 194.968 1329.65 194.518 1331.28 194.251C1334.11 194.134 1338.36 191.089 1337.53 189.763C1336.7 188.437 1336.51 188.554 1333.69 189.865C1332.58 190.542 1331.29 190.885 1329.99 190.856C1328.53 189.967 1330.86 187.053 1333.02 186.995C1334.11 187.017 1335.18 186.679 1336.07 186.034C1336.86 185.145 1336.26 185.189 1323.67 186.966C1321.86 187.214 1319.03 187.534 1317.38 187.665C1316.03 187.685 1314.71 188.067 1313.56 188.773C1313.08 189.297 1309.9 189.618 1305.9 189.559C1302.14 189.559 1298.39 189.865 1297.56 190.361C1296.73 190.856 1291.54 191.497 1286.01 191.818C1280.48 192.138 1273.55 192.633 1270.58 192.954C1266.38 193.406 1265.97 193.362 1268.77 192.765C1270.86 192.313 1271.44 191.978 1270.23 191.949C1267.73 191.949 1263.85 189.792 1264.9 189.035C1267.74 188.468 1270.62 188.156 1273.51 188.102C1276.66 188.048 1279.79 187.637 1282.84 186.879C1285.27 186.221 1287.77 185.893 1290.28 185.902C1303.13 185.48 1312.48 183.702 1312.42 181.721C1312.42 181.386 1313.62 181.022 1315.11 180.934C1319.91 180.614 1303.63 179.652 1293.68 179.652C1275.84 179.652 1275.35 179.652 1278 178.793C1280.01 178.279 1282.07 177.977 1284.14 177.889C1286.03 177.876 1287.88 177.374 1289.51 176.432C1290.97 175.209 1294.02 175.048 1320.14 174.874C1341.89 174.728 1349.94 174.407 1352.33 173.621C1355.8 172.455 1355.99 172.164 1354.31 170.488C1353.59 169.774 1349.94 169.264 1344.34 169.031C1339.48 168.871 1337.4 168.623 1339.71 168.492C1342.88 168.303 1343.46 168.07 1342.09 167.531C1340.72 166.992 1340.75 166.467 1343.4 164.617C1346.06 162.767 1347.39 162.359 1356.46 162.053C1363.75 161.79 1366.52 161.412 1366.9 160.596C1367.28 159.78 1365.97 159.605 1359.76 160.173C1355.55 160.552 1346.42 161.237 1339.48 161.63C1325.7 162.533 1322.11 163.204 1332.41 162.956C1335.17 162.797 1337.94 162.973 1340.66 163.48C1343.7 164.661 1334.83 165.476 1324.62 164.937C1319.64 164.671 1314.65 164.764 1309.68 165.214C1301.92 166.278 1291.49 166.54 1291.46 165.695C1291.46 165.302 1292.65 164.733 1294.12 164.428C1296.83 163.587 1299.43 162.439 1301.88 161.004L1306.94 158.09L1292.78 158.76C1284.97 159.124 1274.53 159.765 1269.56 160.217C1261.7 160.858 1260.51 161.164 1260.56 162.49C1260.6 163.816 1261.55 163.947 1266.67 163.947C1269.9 163.911 1273.13 164.042 1276.35 164.34L1279.99 164.792L1275.79 165.418C1267.81 166.373 1259.77 166.538 1251.76 165.914C1249.41 165.593 1240.44 165.258 1231.82 165.171C1223.2 165.083 1213.99 164.996 1211.4 164.937C1208.82 164.879 1198.17 164.806 1187.91 164.733C1177.64 164.661 1169.05 164.486 1168.8 164.369C1168.55 164.253 1168.8 163.714 1169.19 163.204C1169.59 162.694 1176.72 162.14 1191.84 161.747C1213.61 161.295 1243.11 159.518 1262.16 157.522C1277.83 155.875 1302.4 152.321 1303.59 151.534C1304.2 151.126 1302.74 151.068 1300.27 151.403C1294.08 152.233 1294.79 151.403 1301.73 149.64C1304.28 149.112 1306.74 148.219 1309.03 146.988C1310.85 145.444 1309.03 145.531 1304.53 147.148C1298.03 149.216 1291.15 149.808 1284.39 148.882C1278.45 147.935 1278.1 146.639 1283.73 146.478C1287.88 146.376 1288.11 145.386 1284.77 143.244C1283.82 142.753 1282.98 142.079 1282.29 141.263C1282.29 141.015 1286.48 140.811 1291.61 140.811C1308.82 140.811 1332.82 139.616 1332.79 138.771C1332.79 138.334 1331.46 138.014 1329.87 138.057C1328.28 138.101 1326.78 137.78 1326.54 137.343C1326.31 136.906 1323.39 136.95 1318.32 137.649C1310.56 138.713 1284.59 138.931 1271.96 138.043C1266.25 137.635 1266.13 137.562 1269.51 136.892C1271.48 136.498 1274.87 135.785 1277.04 135.275C1279.29 134.534 1281.74 134.637 1283.92 135.566C1287.8 137.139 1288.04 137.096 1289.32 134.677C1290.04 133.322 1291.64 132.434 1294.05 132.055C1297.98 131.414 1299.37 130.481 1298.17 129.272C1297.69 128.777 1296.72 128.835 1295.36 129.432C1294 130.03 1289.15 130.088 1277.65 129.432C1269.05 128.879 1259.16 128.354 1255.67 128.238C1252.19 128.121 1249.34 127.757 1249.33 127.422C1249.31 127.087 1242.94 126.737 1235.15 126.65C1227.36 126.562 1218.01 126.373 1214.38 126.227C1210.75 126.081 1208.22 126.227 1208.78 126.591C1209.86 127.276 1210.47 127.349 1215.06 127.378C1216.76 127.378 1217.88 127.713 1217.54 128.092C1217.21 128.471 1214.34 128.558 1211.16 128.267C1207.98 127.975 1200.58 127.538 1194.73 127.276C1188.44 127.159 1182.19 126.219 1176.15 124.479C1166.65 121.734 1156.86 120.125 1146.98 119.686C1145.83 119.686 1145.77 119.321 1146.79 118.229C1149.49 115.184 1160.57 114.12 1183.87 114.674C1195.53 114.951 1209.97 115.184 1216.11 115.184C1222.26 115.184 1231.2 115.359 1236 115.563C1246.64 116 1264.6 114.892 1264.52 113.8C1264.52 113.363 1268.13 112.722 1272.59 112.343C1281.91 111.629 1281.21 110.784 1270.9 110.288C1260.03 109.764 1258.84 108.832 1268.57 108.336L1276.98 107.957L1267.05 107.724C1261.59 107.579 1256.46 107.054 1255.63 106.53C1254.46 105.801 1254.9 105.554 1257.68 105.408C1259.64 105.306 1256.62 104.869 1250.97 104.446C1245.33 104.024 1235.82 103.252 1229.84 102.713C1223.86 102.173 1214.07 101.489 1208.11 101.256C1192.88 100.469 1183.49 99.7987 1186.59 99.5219C1187.74 99.5241 1188.86 99.217 1189.85 98.6332C1190.53 97.861 1182.45 97.4239 1162.8 97.1763C1158.37 97.2191 1153.94 97.0343 1149.53 96.6226C1148.67 96.069 1199.12 95.8505 1215.17 96.3312C1232.28 96.8412 1266 95.9816 1266.84 95.0054C1267.21 94.5829 1265.39 93.8253 1262.95 93.3154L1258.4 92.3684L1263.8 91.742L1269.19 91.1009H1262.57C1258.74 91.1151 1254.91 90.8961 1251.11 90.4453C1245.94 89.7168 1243.16 89.6294 1211.32 89.1486C1178.22 88.6533 1181.04 87.7937 1217.59 87.2109C1241.04 86.8467 1251.57 86.4242 1251.56 85.8414C1251.54 85.2587 1248.39 84.6613 1244.57 84.2534C1240.75 83.8455 1234.08 82.9422 1229.75 82.2574C1222.95 81.3806 1216.09 80.8941 1209.23 80.8005C1202.27 80.7131 1191.96 80.4071 1186.33 80.1303C1180.7 79.8535 1169.56 79.4019 1161.61 79.1105C1153.66 78.8191 1145.23 78.3092 1142.89 77.9741C1140.56 77.639 1130.26 77.3913 1119.99 77.4059C1098.23 77.4059 1086.75 76.8231 1081.88 75.2788C1079.04 74.5311 1076.14 74.0435 1073.22 73.8219C1063.24 73.0934 1066.9 72.161 1079.75 72.1756C1123.41 72.1756 1126.97 72.263 1128.4 73.3411C1129.2 73.9482 1130.17 74.3075 1131.18 74.3755C1131.93 74.3755 1131.71 73.9967 1130.7 73.5888C1127.78 72.4378 1141.1 72.3358 1151.97 73.4431C1157.41 74.0487 1162.89 74.1414 1168.35 73.7199C1172.56 73.2974 1175.26 73.3265 1175.27 73.8073C1175.29 74.2881 1182.22 74.8563 1190.68 75.2642L1216.3 76.2695C1221.93 76.488 1234.41 76.4298 1244.02 76.1384L1261.52 75.6139L1246.35 75.4391C1238.02 75.3516 1228.53 74.9437 1225.25 74.5503C1221.96 74.157 1214.42 73.5596 1208.44 73.2245C1202.46 72.8895 1197.07 72.2921 1196.42 71.8987C1194.97 70.9518 1197.75 70.9226 1215.91 71.7239C1223.53 72.2074 1231.18 72.11 1238.78 71.4325C1243.24 70.9226 1248.25 70.5147 1249.91 70.5293C1258.66 70.5293 1273 69.9319 1274.11 69.4511C1276.6 68.3439 1268.51 66.1294 1260.67 65.7797C1255 65.5175 1253.38 65.2261 1255.13 64.7307C1256.88 64.2354 1256.25 64.0751 1252.71 64.1771C1249.35 64.1429 1246 63.88 1242.68 63.3904C1239.34 62.9679 1243.81 62.7347 1257.1 62.6473C1267.7 62.5599 1276.06 62.2831 1275.67 62.0209C1275.27 61.7586 1262.38 61.7732 1246.99 62.0209C1226.37 62.3851 1218.78 62.2685 1218.08 61.5546C1217.15 60.6077 1199.53 59.0488 1171.41 57.4316C1164.12 57.0091 1146.77 56.5429 1132.9 56.4117C1119.03 56.2806 1107.32 56.0329 1106.91 55.8727C1106.5 55.7124 1097.53 55.5959 1086.97 55.6104C1076.41 55.625 1065.59 55.3482 1062.94 55.0131C1060.33 54.6673 1057.71 54.4824 1055.09 54.4595C1052.62 54.4595 1052.42 54.678 1053.91 55.3336C1055.67 56.1058 1043.04 56.2223 1026.5 55.5667C1022.26 55.4065 1021.57 55.5667 1023.82 55.9747C1028.94 57.0236 853.441 61.9626 747.067 63.7546C691.349 64.7016 630.118 66.0565 617.939 66.6684C610.267 67.0327 614.293 68.4313 622.388 68.2273C626.545 68.1108 630.541 68.4313 631.344 68.9266C632.146 69.422 639.76 69.7425 653.587 69.5677C665.022 69.4074 677.916 69.3491 682.219 69.4074C704.958 69.7717 754.578 69.626 786.988 69.0869C851.282 68.0088 917.355 67.63 925.465 68.3147C929.841 68.6644 941.188 69.1015 950.8 69.2617C960.412 69.422 970.17 69.6405 972.489 69.7425C974.808 69.8445 948.292 70.8061 913.548 71.8842C756.81 76.8086 600.174 79.6933 545.827 78.6588C531.913 78.3966 512.937 78.1635 503.66 78.1635C494.384 78.1635 483.532 77.9012 479.55 77.5953C475.568 77.2893 467.692 76.9834 462.047 76.9105C456.402 76.8377 447.199 76.5318 441.554 76.2549C435.909 75.9781 427.77 75.6139 423.453 75.4682C411.464 75.0311 406.519 74.7397 399.926 74.0113C391.044 73.0789 348.876 72.1464 333.634 72.5544C326.341 72.7292 312.806 72.5544 303.515 72.1319C283.474 71.2431 284.816 71.2431 284.845 72.1319C284.845 73.9821 306.913 75.206 339.148 75.1477C356.534 75.1477 385.691 76.0655 400.641 77.1437C417.925 78.3966 464.818 79.9264 496.484 80.2615C509.071 80.3926 527.245 80.6402 536.857 80.8151C553.106 81.1065 610.617 80.6985 681.956 79.7661C718.07 79.2999 856.737 76.5172 928.688 74.8126C966.976 73.8947 981.066 73.8219 982.874 74.4921C985.223 75.3808 985.194 75.4245 982.306 75.6139C977.769 75.9344 990.357 76.7794 998.598 76.7066C1007.87 76.6192 1013.18 77.7701 1005.28 78.1635C976.661 79.6204 938.184 80.9899 914.453 81.5581C886.302 82.2283 878.12 82.4468 864.526 82.9276C860.879 83.0442 856.27 83.1316 854.316 83.0879C852.361 83.0442 839.876 83.2773 826.603 83.5686C785.34 84.5011 694.952 85.5646 692.414 85.1713C691.408 85.011 668.931 85.1713 642.443 85.6666C569.515 86.8321 459.378 85.6666 457.394 83.5978C456.825 83.0005 454.346 82.9568 449.912 83.4375C446.207 83.8455 442.983 83.8455 442.619 83.4375C442.254 83.0296 439.599 82.7528 436.784 82.7965C433.969 82.8402 421.324 82.3885 408.722 81.7912C387.28 80.7714 360.705 79.9409 345.419 79.8098C341.773 79.8098 332.292 79.533 324.328 79.2708C300.364 78.4403 294.574 78.28 285.749 78.2072C281.111 78.2072 275.422 77.945 273.089 77.7119L268.859 77.3039L271.907 78.5277C273.585 79.1979 274.008 79.5913 272.841 79.3727C271.674 79.1542 270.74 79.3727 270.74 79.6787C270.74 79.9846 273.76 80.4508 277.392 80.5528C284.684 80.7568 285.88 81.121 284.918 82.913C284.422 83.8455 282.088 84.1806 274.97 84.37C271.233 84.5672 267.487 84.4551 263.768 84.0349C259.32 83.7638 254.856 83.8564 250.423 84.3117C244.151 84.7633 241.044 85.1421 243.523 85.1567C247.184 85.1567 248.06 85.4772 248.103 86.7739C248.147 88.0705 248.949 88.3473 251.093 88.2308C252.371 88.1139 253.656 88.3615 254.798 88.9447C255.842 89.5103 257.028 89.7584 258.211 89.6586C261.932 89.8632 265.638 90.2815 269.311 90.9115C280.98 92.7472 302.756 95.2823 320.099 96.8703C341.758 98.8226 344.734 99.3471 333.43 99.2014C323.41 99.0557 311.551 98.4875 297.345 97.4531C292.765 97.118 283.27 96.8412 276.254 96.8266C262.514 96.8266 246.689 96.2001 233.605 95.1657C225.189 94.5101 223.395 94.8306 218.013 97.8901C217.686 98.011 217.389 98.2006 217.141 98.4462C216.894 98.6918 216.702 98.9876 216.579 99.3136C216.456 99.6396 216.404 99.9882 216.428 100.336C216.451 100.683 216.549 101.022 216.715 101.328C217.517 103.514 217.415 103.572 212.339 103.718C208.532 103.82 207.628 104.053 208.97 104.592C211.579 105.126 214.246 105.322 216.905 105.175C219.235 105.005 221.578 105.132 223.876 105.554C225.452 106.544 233.766 107.928 237.602 107.841C239.141 107.694 240.693 107.903 242.138 108.453C242.517 108.832 247.841 109.269 253.981 109.414C260.122 109.56 267.313 109.764 269.953 109.851C278.048 110.114 294.982 111.308 300.743 111.935C309.582 112.984 317.867 113.669 324.299 113.916L342.984 114.688C354.229 115.169 390.023 115.577 418.829 115.533C424.46 115.533 435.034 115.767 442.342 116.058C449.649 116.349 466.437 116.539 479.681 116.48C492.925 116.422 504.098 116.67 504.477 117.049C505.25 117.792 512.499 117.923 546.557 117.792C562.076 117.792 568.275 117.471 566.977 116.917C565.679 116.364 566.685 116.116 571.163 116.072C576.399 116.072 576.72 116.072 573.599 116.699C570.477 117.325 570.842 117.384 576.02 117.282C580.396 117.194 581.373 116.99 579.608 116.539C577.245 115.927 577.245 115.912 579.739 115.796C581.178 115.729 582.604 116.089 583.838 116.83C585.276 117.603 586.905 117.951 588.534 117.835L591.685 117.66L588.666 117.107C586.347 116.67 587.207 116.48 592.546 116.276C596.352 116.131 599.474 116.364 599.488 116.772C599.503 117.18 602.522 117.311 606.417 117.005C611.142 116.655 612.776 116.743 611.551 117.311C610.326 117.879 612.82 118.01 619.398 117.762C628.266 117.427 628.543 117.369 622.986 117.005L616.947 116.612L623.934 116.306C628.82 116.087 630.673 116.306 630.118 116.917C629.564 117.529 630.833 117.69 634.275 117.384C635.927 117.114 637.612 117.114 639.264 117.384C639.264 118.083 657.787 117.384 659.421 116.626C661.055 115.868 683.75 115.475 683.779 116.233C683.779 116.495 678.514 116.786 672.111 116.874L660.442 117.034L670.477 117.282C678.032 117.471 680.92 117.879 682.146 118.899C684.129 120.603 685.442 120.633 684.406 118.899C683.692 117.733 686.361 117.602 714.205 117.442C731.022 117.34 748.744 117.165 753.587 117.063C761.39 116.888 762.338 117.063 761.886 118.302C761.434 119.54 762.586 119.758 772.986 119.758C779.374 119.758 764.57 120.254 740.08 120.909C715.591 121.565 698.394 121.886 701.866 121.638C705.337 121.39 708.167 120.851 708.152 120.458C708.137 120.064 704.579 120.05 700.028 120.458C688.622 121.478 647.811 122.556 622.111 122.512C610.18 122.512 592.298 122.512 582.365 122.512C572.432 122.512 562.397 122.512 560.078 122.381C557.759 122.25 546.95 122.221 536.142 122.191C524.241 122.191 517.064 121.827 518.042 121.39C519.252 120.837 519.019 120.662 517.108 120.705C515.65 120.705 512.732 120.618 510.486 120.443C507.306 120.21 506.942 120.297 508.838 120.837C510.734 121.376 510.297 121.58 506.081 121.725C503.447 121.857 500.808 121.632 498.234 121.055C496.776 120.574 490.854 120.327 485.034 120.501C479.214 120.676 474.153 120.501 473.774 120.108C473.395 119.715 470.463 119.7 467.269 120.108C462.789 120.481 458.286 120.481 453.806 120.108C444.325 119.292 405.819 117.733 373.818 116.888C360.545 116.539 343.348 116.043 335.589 115.796C329.469 115.515 323.338 115.579 317.225 115.985C314.891 116.349 312.966 116.32 312.966 115.985C312.966 115.65 307.467 115.563 300.772 115.868C290.314 116.364 288.55 116.655 288.097 117.894C287.645 119.132 286.858 119.263 282.54 118.826C277.537 118.302 265.577 118.389 267.955 118.928C269.588 119.307 306.767 121.274 318.013 121.58C322.987 121.711 328.821 121.958 330.98 122.119C333.138 122.279 334.903 122.119 334.888 121.638C334.874 121.157 333.357 120.735 331.534 120.603C329.711 120.472 331.198 120.268 334.83 120.152C338.462 120.035 340.504 120.152 339.352 120.385C337.135 120.822 336.624 121.929 338.345 122.585C338.914 122.803 349.358 123.27 361.566 123.634C373.774 123.998 384.699 124.421 385.866 124.552C387.032 124.683 387.966 124.348 387.937 123.678C387.908 123.007 388.812 122.643 390.621 122.847C392.079 123.007 399.999 123.401 408.123 123.721C416.248 124.042 422.899 124.654 422.913 125.091C422.928 125.528 426.181 125.63 431.665 125.178C436.449 124.785 439.672 124.77 438.826 125.178C437.98 125.586 443.013 125.95 450.67 126.052C458.036 126.169 464.658 126.052 465.358 125.674C466.058 125.295 466.335 125.47 465.883 125.994C465.431 126.519 466.919 126.985 470.259 127.13C473.088 127.262 464.031 127.48 450.13 127.64C436.23 127.801 423.22 127.844 421.221 127.742C419.223 127.64 406.213 127.291 392.298 126.926C378.383 126.562 360.209 125.95 351.895 125.47C343.582 124.989 328.135 124.362 317.531 124.013C306.928 123.663 292.532 122.891 285.56 122.395C278.588 121.9 271.82 121.536 270.536 121.565C269.25 121.607 267.969 121.384 266.773 120.909C264.394 120.277 261.942 119.954 259.48 119.948C256.228 119.831 254.521 119.948 255.688 120.108C256.855 120.268 257.817 120.866 257.832 121.332C257.847 121.798 259.291 121.944 261.522 121.594C263.754 121.244 264.906 121.317 264.439 121.813C263.973 122.308 264.848 122.643 266.204 122.658C277.727 122.818 290.314 123.794 289.731 124.464C289.381 124.858 290.358 125.134 291.89 125.105C294.486 125.032 315.227 125.717 326.02 126.242L337.47 126.737C341.117 126.883 351.166 127.334 359.786 127.742C392.531 129.301 418.815 129.767 449.62 129.374C485.355 128.908 506.738 128.82 541.087 128.981C554.01 128.981 577.858 128.981 594.092 128.981C613.884 128.893 620.827 129.068 615.183 129.505C607.788 130.088 608.677 130.161 622.475 130.117C628.62 130.227 634.765 129.989 640.883 129.403C642.341 129.039 643.391 129.01 643.1 129.403C642.808 129.797 651.049 129.84 661.405 129.607C671.761 129.374 689.949 129.228 701.807 129.258C717.852 129.258 723.132 129.097 722.49 128.442C721.848 127.786 722.49 127.757 724.999 128.311C727.143 128.791 732.714 128.762 740.284 128.194C750.29 127.466 752.041 127.509 751.224 128.471C750.407 129.432 750.567 129.432 752.245 128.471C752.861 128.107 753.545 127.874 754.255 127.786C754.966 127.699 755.686 127.758 756.372 127.961C759.188 128.791 809.654 127.466 809.625 126.504C809.625 126.111 810.456 126.227 811.477 126.766C812.936 127.509 814.059 127.509 816.262 126.766C817.342 126.269 818.554 126.131 819.718 126.373C820.039 126.693 825.057 126.912 830.891 126.854C838.388 126.854 842.02 127.101 843.318 127.917C844.952 128.952 844.777 129.097 842.195 129.228C831.985 129.738 802.172 130.146 801.224 129.782C799.386 129.097 795.316 130.379 795.389 131.632C795.421 131.913 795.352 132.196 795.194 132.431C795.037 132.666 794.801 132.837 794.529 132.914C794.033 132.987 773.875 133.687 749.721 134.473C711.142 135.712 693.348 135.93 637.761 135.741C630.804 135.741 614.264 135.741 601.02 135.814C587.776 135.887 576.618 135.814 576.224 135.668C575.539 135.42 549.722 135.187 531.752 135.275C518.858 135.275 486.449 134.692 470.886 134.08C463.593 133.789 451.924 133.381 444.967 133.162C421.076 132.434 415.796 132.084 417.429 131.355C418.333 130.948 416.306 130.846 412.66 131.108C409.013 131.37 406.081 131.297 405.761 130.977C405.44 130.656 400.16 130.525 394.092 130.685C389.765 130.881 385.431 130.822 381.111 130.51C380.104 130.277 370.901 130.161 360.618 130.263C350.335 130.365 340.912 130.175 339.629 129.855C338.083 129.476 337.597 129.563 338.17 130.117C339.118 131.079 324.183 131.152 311.274 130.248C294.384 129.054 269.559 128.34 267.911 128.995C266.119 129.336 264.267 129.18 262.558 128.544C260.326 127.844 253.398 127.305 244.399 127.16C231.636 126.941 226.896 126.46 216.525 124.319C214.104 123.823 214.104 123.823 216.525 125.105C219.822 126.839 227.669 128.85 233.226 129.389C236.624 129.724 237.777 130.219 237.806 131.399C237.835 132.579 236.945 133.016 232.147 133.264L226.444 133.555L232.395 133.701C235.662 133.789 238.929 134.357 239.687 134.969C240.446 135.581 245.624 136.513 251.268 137.037C262.82 138.13 275.714 139.791 279.798 140.723C281.257 141.059 290.008 141.35 299.183 141.379C329.944 141.466 357.934 141.86 368.873 142.355C390.037 143.317 407.569 143.972 414.293 144.045C418.056 144.045 425.378 144.38 430.586 144.715C435.793 145.051 447.899 145.473 457.511 145.677C467.123 145.881 477.435 146.114 480.41 146.245C483.386 146.376 491.262 146.522 497.913 146.609C530.687 147.046 549.722 148.066 533.021 148.503C528.222 148.62 526.399 148.955 526.997 149.567C527.595 150.179 526.487 150.354 523.176 150.121C520.594 149.946 510.355 149.844 500.422 149.887C477.274 150.004 451.706 149.421 425.087 148.139C413.418 147.586 389.877 146.915 372.651 146.682C355.425 146.449 335.618 145.823 328.646 145.386C321.674 144.949 315.154 144.555 314.162 144.526C313.17 144.497 301.764 143.885 288.827 143.157L261.683 141.7C259.684 141.598 251.473 141.277 243.392 140.986C235.312 140.694 226.91 140.155 224.693 139.791C218.421 138.757 160.516 140.519 153.559 141.947C147.724 143.171 140.811 146.726 140.869 148.503C140.869 149.203 141.525 149.101 142.955 148.183C145.283 146.995 147.727 146.048 150.248 145.356C155.309 143.9 155.469 143.9 158.036 145.473C160.078 146.755 160.341 147.338 159.232 148.125C157.03 149.684 157.526 150.252 161.479 150.718C163.278 150.874 164.991 151.553 166.409 152.67C167.459 153.894 169.02 154.127 174.868 153.981C179.611 153.943 184.346 154.338 189.017 155.162C197.272 156.779 214.469 157.58 239.381 157.522C249.314 157.522 258.795 157.522 260.458 157.653L264.979 157.915C267.225 158.046 266.861 159.372 264.454 159.911C263.127 160.173 263.564 160.334 265.592 160.334C271.426 160.334 270.74 161.907 264.892 162.053C261.872 162.14 259.422 162.519 259.437 162.898C259.451 163.277 257.176 163.349 254.317 163.058C247.141 162.33 238.025 162.606 237.179 163.582C236.785 164.034 233.357 164.486 229.58 164.588C226.368 164.52 223.169 165.013 220.128 166.045C218.042 167.079 216.584 167.196 212.354 166.598C207.526 165.928 190.694 163.99 189.848 164.005C189.644 164.005 189.848 164.427 190.358 164.923C190.869 165.418 189.688 165.724 185.326 165.404C182.074 165.171 178.325 164.908 176.998 164.835C175.345 164.684 173.715 164.341 172.141 163.816C169.311 162.825 155.513 160.814 154.828 161.295C154.565 161.485 156.607 161.965 159.364 162.388C163.739 163.058 164.148 163.306 162.646 164.355C161.143 165.404 153.442 166.234 151.969 165.302C148.2 164.834 144.403 164.644 140.607 164.733C135.837 164.78 131.074 164.404 126.371 163.612C124.001 162.908 121.492 162.818 119.078 163.349L115.49 164.107L119.866 165.243C121.717 165.62 123.495 166.294 125.131 167.239C126.59 168.696 133.503 170.153 141.686 170.547C144.656 170.768 147.636 170.831 150.612 170.736C153.106 170.226 170.522 171.974 170.551 172.746C170.551 174.203 162.412 179.04 158.751 179.667C156.768 180.016 155.149 180.556 155.163 180.876C155.178 181.197 154.098 182.333 152.786 183.295C151.05 184.606 148.979 185.145 145.318 185.247C138.623 185.422 124.431 183.892 112.427 181.707C100.423 179.521 93.6113 179.652 83.8388 182.144C72.1703 185.057 70.9159 186.689 82.2927 184.081C88.9438 182.624 102.917 181.954 107.584 183.003C113.419 184.3 110.983 185.334 101.604 185.582C92.8528 185.815 84.3202 187.651 84.3785 189.268C84.3785 189.618 87.2957 189.822 90.7087 189.705C107.818 189.122 146.63 188.569 148.497 188.875C149.664 189.064 150.642 189.88 150.671 190.681C150.744 193.085 147.754 194.163 142.109 193.799C134.335 193.289 107.103 193.537 108.007 194.105C111.162 194.609 114.352 194.853 117.546 194.833C126.196 195.081 133.197 196.96 132.424 198.825C131.651 200.69 127.246 200.457 107.628 198.578C104.711 198.301 104.813 198.359 108.285 199.699C110.625 200.56 113.086 201.052 115.577 201.156C118.03 201.193 120.473 201.471 122.87 201.987L126.517 202.832L123.6 203.75C119.041 204.546 114.428 204.984 109.801 205.061C104.141 205.122 98.5048 205.816 92.9987 207.13C87.6941 208.31 82.2857 208.964 76.8523 209.082C71.5577 209.33 66.9631 209.592 66.6423 209.636C66.3214 209.679 67.8675 210.204 70.0991 210.787C75.8459 212.243 74.4748 213.89 67.4591 213.904C65.7168 213.779 63.9657 213.887 62.252 214.225C62.5291 214.4 67.0215 215.07 72.2432 215.682C77.6982 216.367 82.0156 217.343 82.3511 217.969C82.6866 218.596 82.3511 218.931 81.2572 218.698C76.4147 217.605 74.1247 217.401 74.1539 218.042C74.1539 219.135 85.8225 220.956 98.4829 221.961C103.718 222.294 108.929 222.931 114.09 223.87C117.675 224.628 121.312 225.115 124.971 225.327C128.632 225.516 135.414 226.084 140.067 226.58C144.72 227.075 156.943 227.832 167.225 228.255C177.508 228.678 189.994 229.275 194.938 229.552C199.883 229.828 208.328 230.164 213.637 230.28C228.223 230.601 243.013 231.504 250.437 232.509C254.098 233.005 260.895 233.529 265.533 233.66C270.172 233.791 276.137 234.185 278.777 234.534C281.855 234.928 284.072 234.869 284.962 234.33C286.26 233.573 309.363 234.724 311.858 235.671C314.352 236.618 378.121 240.129 401.866 240.595C407.832 240.712 418.684 241.149 425.991 241.571C445.784 242.722 476.035 243.145 524.182 243.028C527.829 243.028 537.309 243.028 545.273 243.028C556.942 243.116 557.831 243.028 550.072 242.708C544.763 242.474 524.707 242.125 505.483 241.95C468.435 241.6 445.682 241.061 428.952 240.158C423.307 239.852 409.99 239.328 399.401 238.992C371.222 238.104 344.092 236.836 343.348 236.355C342.604 235.875 373.161 236.137 378.952 236.807C381.665 237.113 393.538 237.492 405.352 237.652C417.167 237.812 427.231 238.089 427.654 238.264C428.077 238.439 434.144 238.483 441.029 238.264C447.913 238.045 459.261 238.264 466.233 238.424C473.205 238.585 483.736 238.876 489.731 238.949C495.725 239.022 503.558 239.167 507.234 239.284C520.886 239.721 539.818 239.823 560.559 239.561C572.315 239.415 582.35 239.444 582.846 239.561C583.342 239.677 597.826 239.765 615.037 239.561C645.244 239.284 663.17 239.561 677.114 240.741C680.76 241.032 689.541 241.149 696.615 240.988C703.689 240.828 709.815 241.294 710.238 241.731ZM1287.92 182.348C1290.12 181.736 1302.39 180.978 1308.02 181.095C1310.22 181.095 1310.19 181.211 1307.7 181.954C1303.61 182.6 1299.47 182.902 1295.33 182.857C1289.5 182.945 1286.58 182.726 1287.92 182.348ZM1275.08 186.718C1273.42 186.718 1272.74 186.602 1273.63 186.354C1274.61 186.104 1275.64 186.079 1276.63 186.281C1277.4 186.412 1276.73 186.616 1275.08 186.66V186.718ZM1268.83 161.659L1278.21 161.033C1288.31 160.348 1300.87 160.581 1298.93 161.412C1296.21 162.577 1293.54 162.708 1281.43 162.198L1268.83 161.659ZM1252.43 175.952C1255.6 175.18 1273.68 174.888 1278.69 175.544C1282.22 176.01 1282 176.083 1276.46 176.301C1273.09 176.432 1267.14 176.782 1263.24 177.088C1259.87 177.393 1256.49 177.393 1253.12 177.088C1250.26 176.534 1250.22 176.447 1252.43 175.893V175.952ZM1244.38 175.864C1245.13 175.611 1245.94 175.611 1246.69 175.864C1247.1 176.127 1246.39 176.331 1245.13 176.331C1243.86 176.331 1243.43 176.083 1244.38 175.806V175.864ZM1235.28 176.097C1236.67 175.86 1238.09 175.825 1239.5 175.995C1240.66 176.156 1239.71 176.345 1237.4 176.418C1235.08 176.491 1234.07 176.272 1235.28 176.039V176.097ZM1208.57 178.836C1206.93 178.836 1206.24 178.705 1207.12 178.472C1208.1 178.225 1209.12 178.195 1210.12 178.385C1210.89 178.487 1210.22 178.734 1208.57 178.778V178.836ZM1215.09 178.72C1213.64 178.72 1213.4 178.545 1214.35 178.254C1215.1 177.991 1215.91 177.991 1216.65 178.254C1217.06 178.487 1216.36 178.662 1215.11 178.662L1215.09 178.72ZM1222.39 179.332C1220.93 179.332 1220.69 179.157 1221.64 178.866C1222.39 178.603 1223.2 178.603 1223.95 178.866C1224.31 179.069 1223.61 179.288 1222.4 179.273L1222.39 179.332ZM1213.02 175.209C1220.48 175.092 1226.72 175.325 1226.89 175.733C1227.07 176.141 1223.01 176.68 1217.89 176.942C1212.35 177.234 1208.56 177.103 1208.54 176.636C1208.53 176.17 1206.49 175.748 1203.99 175.631C1201.5 175.515 1205.53 175.267 1212.98 175.15L1213.02 175.209ZM1189.86 230.571C1186.23 230.673 1184.73 230.571 1186.55 230.324C1188.74 230.088 1190.95 230.035 1193.16 230.164C1194.95 230.236 1193.46 230.426 1189.82 230.513L1189.86 230.571ZM1184.84 177.248C1187.63 177.132 1189.15 177.379 1188.71 177.875C1187.91 178.793 1187.56 178.807 1183.3 178.021C1180.57 177.467 1180.74 177.379 1184.8 177.19L1184.84 177.248ZM1270.9 150.252C1272.9 150.412 1275.83 150.543 1277.43 150.572C1284.43 150.572 1277.55 151.767 1261.7 153.166C1240.91 155.001 1242.52 154.928 1240.41 154.113C1238.61 153.701 1236.75 153.642 1234.93 153.938C1233.17 154.372 1231.31 154.155 1229.69 153.326C1228.43 152.364 1229.69 152.058 1238.71 151.228C1249.39 150.206 1260.13 149.86 1270.86 150.193L1270.9 150.252ZM1243.08 137.373C1244.24 137.547 1243.08 137.737 1240.37 137.795C1237.66 137.853 1236.78 137.722 1238.27 137.489C1239.85 137.234 1241.45 137.176 1243.04 137.314L1243.08 137.373ZM1235.53 129.505C1236.52 129.279 1237.54 129.279 1238.53 129.505C1239.36 129.695 1238.69 129.899 1237.07 129.942C1235.46 129.986 1234.73 129.753 1235.53 129.505ZM1239.74 141.743C1253.21 140.869 1256.88 140.898 1255.41 141.874C1254.39 142.545 1233.11 143.579 1229.05 143.157C1226.05 142.836 1229.08 142.428 1239.76 141.743H1239.74ZM1227.7 128.952C1229.09 128.709 1230.51 128.67 1231.91 128.835C1233.06 129.01 1232.13 129.199 1229.81 129.258C1227.49 129.316 1226.54 129.126 1227.7 128.952ZM1219.85 128.369C1220.83 128.119 1221.86 128.094 1222.85 128.296C1223.68 128.5 1223.01 128.689 1221.39 128.733C1219.78 128.777 1219.03 128.558 1219.85 128.311V128.369ZM1178.34 111.804C1179.33 111.556 1180.36 111.527 1181.36 111.716C1182.19 111.92 1181.52 112.124 1179.9 112.168C1178.28 112.212 1177.52 111.993 1178.34 111.745V111.804ZM1160.34 111.469C1161.09 111.217 1161.91 111.217 1162.66 111.469C1163.07 111.731 1162.35 111.935 1161.08 111.935C1159.81 111.935 1159.39 111.673 1160.34 111.469ZM1149.52 111.76C1150.26 111.492 1151.08 111.492 1151.82 111.76C1152.23 112.008 1151.53 112.226 1150.26 112.226C1148.99 112.226 1148.55 111.964 1149.47 111.687L1149.52 111.76ZM959.902 66.5956C956.058 66.6022 952.219 66.3002 948.423 65.6923C947.227 64.8764 969.762 65.4446 972.139 66.3042C974.517 67.1201 975.538 67.0909 959.946 66.581L959.902 66.5956ZM487.484 103.018C486.026 103.018 485.793 102.844 486.755 102.567C487.5 102.299 488.315 102.299 489.06 102.567C489.512 102.829 488.739 103.048 487.528 103.033L487.484 103.018ZM511.536 116.772C509.874 116.772 509.203 116.655 510.078 116.408C511.062 116.165 512.088 116.14 513.082 116.335C513.899 116.553 513.228 116.757 511.58 116.786L511.536 116.772ZM543.246 117.529C542.706 117.529 537.411 117.311 531.417 117.18L520.579 116.976L531.635 116.524C537.966 116.276 543.012 116.422 543.45 116.874C543.917 117.296 543.829 117.617 543.289 117.544L543.246 117.529ZM550.699 117.325C548.715 117.325 548.03 117.194 549.24 116.961C550.436 116.744 551.662 116.744 552.858 116.961C553.675 117.121 552.726 117.296 550.743 117.296L550.699 117.325ZM560.909 117.034C558.59 117.034 557.642 116.947 558.794 116.713C560.182 116.476 561.597 116.442 562.995 116.612C564.22 116.786 563.286 116.99 560.967 117.049L560.909 117.034ZM585.705 101.897C550.991 102.64 542.925 102.611 521.25 101.62C517.269 101.445 501.283 101.503 485.734 101.766C462.295 102.144 426.91 102.509 419.515 102.436C418.509 102.436 413.899 102.115 409.305 101.766C404.71 101.416 400.174 101.124 399.357 101.139C398.541 101.154 397.899 100.95 397.826 100.687C397.753 100.425 395.244 100.236 392.094 100.265C382.307 100.367 364.731 99.7404 363.462 99.2596C362.193 98.7789 362.237 98.7352 351.633 98.2689C345.478 97.9921 343.056 97.5259 341.948 96.4041C341.052 95.542 339.879 95.0257 338.637 94.9472C337.047 94.9472 337.047 95.1074 338.637 95.7048C342.794 97.3219 337.922 97.3656 320.434 95.8359C295.915 93.6942 285.428 92.3539 286.187 91.4651C286.945 90.5764 309.743 90.8824 312.674 92.0042C315.169 92.9512 322.884 94.175 324.343 93.869C325.349 93.6796 355.556 94.3935 360.807 94.7286C362.806 94.8598 369.719 95.0783 376.181 95.224C385.093 95.4134 387.937 95.7485 387.966 96.5935C387.995 97.4385 386.989 97.6279 384.086 97.3656C377.173 96.7246 369.705 96.71 370.74 97.3656C372.286 98.2981 393.304 99.0411 394.588 98.2107C395.244 97.7736 394.5 97.4822 392.765 97.4968C389.993 97.4968 390.023 97.4968 393.275 96.71C395.08 96.2527 396.966 96.2128 398.789 96.5935C402.421 97.1763 406.093 97.4734 409.772 97.4822C414.702 97.5988 421.44 97.963 424.766 98.2981C428.091 98.6332 436.77 98.9246 444.048 98.9537C451.326 98.9828 466.525 99.1285 477.785 99.3033C496.455 99.5656 504.827 99.6384 538.024 99.755C543.99 99.755 562.936 99.6384 580.118 99.449C599.342 99.2451 611.682 99.449 612.207 99.9007C613.439 100.409 614.808 100.481 616.087 100.105C617.85 99.7752 619.664 99.8449 621.396 100.309C623.044 100.877 613.126 101.27 585.763 101.911L585.705 101.897ZM633.488 101.605C631.533 101.693 630.41 101.416 630.833 100.935C631.256 100.454 630.395 100.148 628.995 100.177C627.595 100.207 626.793 100.6 627.216 101.023C628.076 101.897 626.311 102.159 625.028 101.358C623.059 100.134 624.532 99.4927 629.652 99.3616C632.656 99.2742 634.83 99.551 634.48 99.9735C634.129 100.396 634.479 100.877 635.34 101.081C636.201 101.285 635.413 101.532 633.546 101.62L633.488 101.605ZM318.99 120.21C317.342 120.21 316.656 120.094 317.531 119.846C318.515 119.598 319.54 119.569 320.536 119.758C321.309 119.992 320.638 120.21 318.99 120.21ZM326.837 120.21C326.522 120.61 326.088 120.901 325.597 121.041C325.306 121.041 325.058 120.691 325.043 120.254C325.029 119.817 325.583 119.438 326.283 119.409C326.983 119.38 327.216 119.715 326.837 120.21ZM359.407 121.667C356.632 122.165 353.824 122.462 351.006 122.556C346.776 122.687 346.557 122.556 349.183 121.915C351.429 121.317 350.831 121.259 346.761 121.667C342.925 122.046 341.875 121.958 343.144 121.361C345.215 120.37 354.346 119.904 353.544 120.88C353.237 121.23 355.236 121.376 357.919 121.201C362.528 120.924 362.645 120.968 359.378 121.667H359.407ZM365.781 123.124C362.193 123.226 361.537 122.862 364.06 122.133C365.163 121.902 366.308 121.978 367.371 122.352C368.596 122.862 368.159 123.124 365.752 123.124H365.781ZM381.752 123.299C378.835 123.386 377.552 123.299 379.025 123.022C380.823 122.782 382.643 122.738 384.451 122.891C385.909 123.124 384.699 123.24 381.723 123.313L381.752 123.299ZM427.508 122.905C417.59 123.153 391.335 122.017 396.149 121.565C397.797 121.405 399.445 121.274 399.81 121.288L412.47 121.58C419.063 121.711 427.172 122.017 430.498 122.264C436.114 122.672 435.924 122.716 427.479 122.92L427.508 122.905ZM441.977 123.415C440.314 123.415 439.629 123.299 440.518 123.051C441.503 122.808 442.528 122.784 443.523 122.978C444.267 123.197 443.596 123.386 441.948 123.43L441.977 123.415ZM528.747 126.038C527.085 126.038 526.414 125.907 527.289 125.674C528.271 125.419 529.298 125.389 530.294 125.586C531.037 125.732 530.396 125.936 528.747 126.038ZM626.399 129.083C624.751 129.083 624.065 128.966 624.94 128.718C625.925 128.476 626.95 128.451 627.945 128.646C628.762 128.791 628.062 128.952 626.399 129.024V129.083ZM823.511 171.202C821.527 171.202 820.856 171.071 822.052 170.838C823.248 170.621 824.473 170.621 825.669 170.838C826.457 170.954 825.509 171.202 823.511 171.202ZM887.163 165.506C884.54 165.582 881.915 165.441 879.316 165.083L876.282 164.515L879.301 164.398C881.918 164.39 884.533 164.531 887.134 164.821L891.976 165.36L887.163 165.506ZM887.323 161.135C888.312 160.909 889.339 160.909 890.328 161.135C891.159 161.324 890.488 161.528 888.869 161.572C887.25 161.616 886.492 161.353 887.323 161.106V161.135ZM900.29 161.98C898.306 161.98 897.635 161.849 898.831 161.616C900.022 161.399 901.243 161.399 902.434 161.616C903.236 161.718 902.274 161.907 900.29 161.951V161.98ZM913.49 142.341C911.171 142.341 910.223 142.341 911.375 142.035C912.767 141.792 914.187 141.753 915.59 141.918C916.743 142.064 915.809 142.253 913.49 142.312V142.341ZM906.97 127.174C899.356 127.378 889.322 127.393 884.683 127.174C877.186 126.912 877.77 126.824 890.08 126.475C897.694 126.242 907.714 126.227 912.367 126.475C920.01 126.766 919.514 126.839 906.97 127.145V127.174ZM927.39 161.295C925.742 161.295 925.057 161.179 925.932 160.931C926.92 160.684 927.95 160.654 928.951 160.843C929.695 161.004 929.024 161.222 927.361 161.266L927.39 161.295ZM928.47 121.259C923.31 122.197 918.037 122.339 912.834 121.682C909.917 121.346 912.046 121.099 920.039 120.866C927.376 120.633 930.38 120.778 928.44 121.23L928.47 121.259ZM1022.58 142.69C1020.59 142.69 1019.92 142.559 1021.12 142.326C1022.31 142.109 1023.54 142.109 1024.74 142.326C1025.49 142.472 1024.49 142.661 1022.58 142.69ZM1061.04 140.359C1055.05 141.053 1049.02 141.34 1043 141.219C1034.41 141.219 1029.53 141.452 1030.98 141.831C1033.11 142.37 1033.01 142.472 1030.03 142.603C1028.06 142.603 1026.95 142.399 1027.36 141.918C1027.77 141.437 1025.06 141.175 1019.89 141.321C1014.16 141.481 1012.25 141.772 1013.53 142.282C1014.82 142.792 1014.85 143.025 1012.64 143.098C1011.19 143.098 1009.93 142.851 1009.92 142.428C1009.92 142.02 1008.46 141.976 1006.61 142.326C1001.51 142.796 996.382 142.971 991.261 142.851C982.51 142.851 980.701 142.603 984.625 142.224C987.542 141.933 980.001 141.86 967.749 142.064C955.497 142.268 939.511 142.268 932.218 142.064C923.467 141.816 938.957 141.306 977.944 140.607C1010.38 139.995 1038.81 139.529 1041.14 139.587C1043.48 139.645 1049.69 139.587 1054.99 139.587C1063.07 139.485 1064 139.616 1060.97 140.359H1061.04ZM952.244 121.667C953.239 121.449 954.269 121.449 955.264 121.667C956.095 121.871 955.424 122.06 953.805 122.104C952.186 122.148 951.428 121.929 952.244 121.667ZM973.044 122.454C966.086 122.381 961.215 122.177 962.192 122.031C966.392 121.405 992.982 121.317 994.689 121.929C996.716 122.672 994.193 122.731 972.985 122.468L973.044 122.454ZM992.384 124.362C992.384 125.266 987.556 125.397 982.174 124.625C979.257 124.202 979.768 124.056 985.456 123.838C989.365 123.678 992.384 123.911 992.399 124.362H992.384ZM1019.76 122.293C1020.42 121.565 1022.87 121.536 1030.09 122.177C1033.52 122.384 1036.93 122.812 1040.3 123.459C1041.03 123.911 1040.21 123.911 1027.07 123.459C1021.23 123.342 1019.16 123.007 1019.76 122.308V122.293ZM1119.95 139.471C1124.66 139.776 1115.97 140.184 1095.16 140.651C1073.89 141.131 1063.72 141.088 1065.05 140.549C1067.28 139.602 1109.06 138.786 1119.95 139.485V139.471ZM1069.25 124.217C1070 123.963 1070.81 123.963 1071.56 124.217C1071.96 124.479 1071.26 124.683 1069.99 124.683C1068.73 124.683 1068.29 124.581 1069.25 124.217ZM1083.84 174.786C1081.84 174.786 1081.17 174.67 1082.38 174.437C1083.57 174.204 1084.79 174.179 1086 174.364C1086.75 174.568 1085.78 174.757 1083.84 174.786ZM1156.9 163.918C1153.59 163.99 1152.38 163.918 1154.2 163.641C1156.19 163.407 1158.2 163.358 1160.21 163.495C1161.7 163.699 1160.21 163.918 1156.9 163.918ZM1191.77 145.575C1184.48 146.216 1125.03 147.658 1122.87 147.25C1121.41 146.959 1114.12 146.158 1106.82 145.473L1093.54 144.22L1117.02 144.074C1129.93 144.074 1142.94 143.972 1145.93 144.074C1148.92 144.176 1158.97 144.206 1168.3 144.278C1183.24 144.322 1196.96 145.123 1191.77 145.575ZM1138.3 140.082C1139.29 139.857 1140.32 139.857 1141.3 140.082C1142.14 140.272 1141.47 140.476 1139.85 140.52C1138.23 140.563 1137.51 140.33 1138.34 140.082H1138.3ZM1198.68 139.019C1204.24 138.873 1208.54 139.019 1208.22 139.179C1206.98 140.053 1196.56 140.447 1181.97 140.184C1161.55 139.806 1157.79 139.354 1174.68 139.31C1182.36 139.281 1193.23 139.15 1198.73 139.019H1198.68ZM1169.13 124.129C1169.5 124.348 1166.04 124.61 1161.46 124.697C1153.28 124.843 1153.22 124.829 1157.32 123.721C1161.14 122.687 1167.22 122.905 1169.18 124.129H1169.13ZM1138.5 114.222C1141.28 114.091 1143.9 114.339 1144.34 114.776C1145.18 115.635 1144.03 115.665 1137.72 114.951L1133.49 114.47L1138.5 114.222ZM1127.21 96.2147C1127.96 95.9466 1128.77 95.9466 1129.52 96.2147C1129.93 96.4624 1129.23 96.6809 1127.96 96.6809C1126.69 96.6809 1126.37 96.4915 1127.32 96.2147H1127.21ZM1145.46 120.749C1151.89 121.346 1156.87 122.206 1156.5 122.599C1156.14 122.993 1150.67 123.328 1144.21 123.299C1137.06 123.299 1134.19 123.43 1136.78 123.75C1145.86 124.872 1122.63 124.77 1095.84 123.576C1077.49 122.76 1065.39 122.614 1058.49 123.095C1054.12 123.512 1049.73 123.536 1045.36 123.168C1040.4 122.075 1054.01 121.172 1068.3 121.711C1075.16 121.944 1092.7 121.594 1107.29 120.924C1129.71 119.846 1135.69 119.831 1145.56 120.749H1145.46ZM1117.52 96.4769C1118.5 96.2583 1119.53 96.2583 1120.52 96.4769C1121.35 96.6809 1120.68 96.8703 1119.06 96.914C1117.44 96.9577 1116.8 96.7246 1117.62 96.4769H1117.52ZM1105.47 95.9524C1107.06 95.7249 1108.68 95.6907 1110.28 95.8505C1111.43 96.0253 1110.28 96.2147 1107.57 96.273C1104.85 96.3312 1104.08 96.1855 1105.57 95.9524H1105.47ZM1103.44 116.728C1106.74 116.597 1112.42 116.174 1116.06 115.81C1120.65 115.329 1122.3 115.402 1121.48 116.014C1120.02 117.092 1105.96 118.098 1101.06 117.471C1098.07 117.063 1098.42 116.961 1103.54 116.728H1103.44ZM1092.7 92.9512C1095.18 92.8346 1097.23 93.0969 1097.24 93.534C1097.24 93.971 1097.14 94.2916 1096.96 94.2333C1096.79 94.175 1094.76 93.9273 1092.43 93.6651L1088.2 93.1843L1092.7 92.9512ZM1025.98 66.2022C1065.08 65.5175 1087.24 65.4301 1096.42 65.9108C1099.34 66.0565 1105.66 66.2168 1110.3 66.2605C1121.67 66.3479 1160.63 67.7174 1162.15 68.169C1162.8 68.3293 1159.57 68.4896 1154.85 68.5187C1135.02 68.6353 1102.35 68.6061 1092.82 68.5187C1087.19 68.5187 1069.57 68.3147 1053.67 68.2419C1037.78 68.1691 1016.74 67.7611 1006.75 67.4552L988.665 66.8433L1025.98 66.2022ZM1029.23 73.4868C1026.91 73.4868 1025.96 73.4868 1027.11 73.1808C1028.51 72.9454 1029.92 72.9062 1031.33 73.0643C1032.5 73.21 1031.55 73.3994 1029.23 73.4577V73.4868ZM1006.43 75.8179C1000.96 75.627 995.512 75.1015 990.109 74.2444C986.915 73.4139 988.475 73.2537 1003 72.904C1012.09 72.7001 1019.29 72.7875 1019.05 73.108C1018.8 73.4285 1019.73 73.5888 1021.19 73.4722C1022.69 73.3682 1024.19 73.496 1025.65 73.851C1030 74.4894 1034.39 74.8785 1038.78 75.0166C1043.31 75.1501 1047.82 75.5833 1052.29 76.3132C1054.68 76.8112 1057.13 77.007 1059.58 76.896C1068.86 76.6483 1063.96 77.3768 1051.06 78.1344C1043.62 78.5714 1040.85 78.5714 1044.44 78.1344L1050.44 77.3913H1044.6C1041.87 77.3482 1039.14 77.6567 1036.49 78.3092C1034.92 78.9357 1034.19 78.9502 1034.17 78.3092C1034.16 77.6681 1031.36 77.5516 1027.77 77.639C1025.24 77.8305 1022.69 77.6489 1020.21 77.1C1019.66 76.7649 1013.39 76.153 1006.43 75.7887V75.8179ZM720.419 116.189C718.96 116.189 718.727 116.014 719.675 115.723C720.421 115.461 721.233 115.461 721.979 115.723C722.388 115.985 721.688 116.189 720.419 116.189ZM703.149 101.154C670.404 101.897 664.03 101.838 663.986 100.746C663.986 100.177 663.418 100.207 662.309 100.862C661.201 101.518 658.269 101.751 654.812 101.62C651.589 101.503 646.513 101.445 643.537 101.474C639.993 101.474 638.68 101.285 639.745 100.804C641.101 100.192 641.101 100.003 639.745 99.6821C638.841 99.4636 639.847 99.2159 641.991 99.1285C644.135 99.0411 645.915 99.2305 645.929 99.551C645.944 99.8715 652.712 99.857 660.982 99.551C671.352 99.0994 676.02 99.1577 676.034 99.7696C676.034 100.906 679.36 100.819 679.899 99.653C680.191 98.9974 681.606 98.9537 685.107 99.5073C690.301 100.033 695.523 100.228 700.742 100.09C706.693 100.003 715.649 100.09 720.623 100.265C726.647 100.425 720.871 100.746 703.149 101.154ZM734.333 115.723C732.029 115.723 731.066 115.635 732.218 115.417C733.611 115.174 735.03 115.135 736.434 115.3C737.615 115.461 736.696 115.65 734.348 115.708L734.333 115.723ZM800.844 120.531C795.929 120.691 792.21 120.531 792.574 120.356C793.843 119.453 804.112 118.899 806.927 119.569C809.115 120.079 807.67 120.298 800.874 120.516L800.844 120.531ZM800.319 116.859C801.302 116.612 802.328 116.582 803.324 116.772C804.155 116.976 803.484 117.18 801.865 117.223C800.246 117.267 799.517 117.092 800.334 116.845L800.319 116.859ZM806.65 117.223C805.089 116.597 805.191 116.48 806.927 116.422C808.094 116.422 809.042 116.713 809.056 117.165C809.115 118.127 808.969 118.127 806.708 117.209L806.65 117.223ZM819.383 119.831C814.759 119.962 812.703 119.831 814.832 119.642C817.635 119.391 820.45 119.314 823.263 119.409C825.771 119.511 824.036 119.7 819.397 119.817L819.383 119.831ZM818.376 116.378C819.366 116.16 820.392 116.16 821.381 116.378C822.213 116.582 821.542 116.772 819.923 116.815C818.304 116.859 817.56 116.612 818.376 116.364V116.378ZM823.292 115.65C812.907 115.023 779.039 115.898 780.424 116.757C783.29 117.086 786.18 117.159 789.059 116.976C793.435 116.859 797.008 117.107 797.023 117.529C797.037 117.952 796.556 118.287 795.944 118.302C795.039 118.348 794.139 118.446 793.245 118.593C792.37 118.739 785.252 118.913 777.42 118.986C766.903 119.074 763.301 118.855 763.636 118.127C763.972 117.398 766.553 117.151 771.833 117.209C776.078 117.209 779.287 117.121 778.937 116.917C778.032 116.378 766.116 115.912 757.933 116.116C754.024 116.204 751.209 116 751.69 115.665C753.528 114.353 826.544 113.931 827.813 115.227C828.28 115.665 826.515 115.839 823.306 115.635L823.292 115.65ZM826.749 99.8133C757.248 100.585 731.066 100.717 730.395 100.294C729.724 99.8715 837.819 96.6081 845.127 96.7537C847.125 96.7537 870.2 96.5643 896.41 96.2584C937.396 95.763 944.864 95.865 949.677 96.9577C955.337 98.2398 959.887 97.8756 958.268 96.273C957.656 95.6611 959.96 95.5008 966.349 95.7339C973.773 96.0107 975.552 95.8359 976.851 94.7286C978.542 93.2717 982.364 92.8783 983.472 94.0002C983.852 94.379 992.151 94.5392 1001.91 94.3353C1011.67 94.1313 1024.02 94.3353 1029.33 94.8452C1034.64 95.3551 1051.69 95.7776 1067.25 95.8359C1082.82 95.8942 1095.72 96.0981 1096.07 96.3312C1096.8 96.7829 1074.2 97.4968 1073.35 97.0306C1072.18 96.3749 1015.87 97.1325 977.74 98.3418C917.807 100.236 902.069 100.498 888.855 99.7987C882.247 99.551 854.345 99.5365 826.749 99.8133ZM865.299 126.81C863.84 126.81 863.607 126.635 864.555 126.344C865.306 126.082 866.123 126.082 866.874 126.344C867.282 126.635 866.509 126.839 865.299 126.839V126.81ZM859.377 126.81C857.393 126.81 856.722 126.679 857.918 126.446C859.11 126.237 860.329 126.237 861.521 126.446C862.323 126.679 861.375 126.868 859.377 126.912V126.81ZM852.697 161.135C860.311 161.208 870.506 161.135 875.348 161.047C880.191 160.96 883.852 161.149 883.502 161.557C882.714 162.446 850.086 163.379 844.558 162.665C836.186 161.688 839.351 161.091 852.697 161.237V161.135ZM817.574 162.009C818.32 161.747 819.133 161.747 819.879 162.009C820.287 162.257 819.587 162.461 818.318 162.461C817.049 162.461 816.612 162.461 817.574 162.111V162.009ZM810.281 162.228C811.264 161.973 812.291 161.943 813.286 162.14C814.117 162.344 813.447 162.548 811.827 162.592C810.208 162.635 809.45 162.563 810.281 162.33V162.228ZM864.409 167.706C864.044 168.128 864.978 168.594 866.48 168.74C868.989 169.002 868.96 169.031 866.116 169.206C864.895 169.354 863.659 169.305 862.455 169.06C862.148 168.871 849.196 168.857 833.648 169.06C806.343 169.381 766.553 168.988 764.993 168.376C764.57 168.215 758.575 168.143 751.676 168.215C744.777 168.288 736.944 168.143 734.29 167.895C729.258 167.443 736.871 167.341 808.925 166.963C866.67 166.729 865.372 166.7 864.409 167.808V167.706ZM798.35 165.753C799.333 165.506 800.359 165.476 801.355 165.666C802.186 165.87 801.515 166.074 799.896 166.118C798.277 166.161 797.533 166.103 798.35 165.855V165.753ZM795.812 162.563C798.609 162.298 801.421 162.22 804.228 162.33C806.737 162.432 804.987 162.635 800.363 162.752C795.739 162.869 793.683 162.898 795.812 162.665V162.563ZM784.406 162.883C785.798 162.641 787.218 162.601 788.621 162.767C789.774 162.941 788.84 163.131 786.521 163.189C784.202 163.247 783.254 163.218 784.406 162.985V162.883ZM528.966 164.908C531.558 164.964 534.134 165.331 536.638 166.001C537.338 166.409 535.413 166.744 531.854 166.817C527.989 166.904 525.291 166.511 524.168 165.724C522.621 164.733 523.088 164.646 528.966 165.01V164.908ZM512.922 165.054C517.298 164.879 520.463 165.054 520.477 165.549C520.477 166.423 517.648 166.496 510.267 165.812C505.746 165.506 505.95 165.447 512.878 165.156L512.922 165.054ZM491.291 165.739C492.885 165.504 494.502 165.47 496.105 165.637C497.257 165.797 496.105 165.986 493.392 166.045C490.679 166.103 489.745 166.074 491.248 165.841L491.291 165.739ZM338.506 236.049C336.201 236.049 335.239 235.962 336.391 235.729C337.784 235.491 339.203 235.457 340.606 235.627C341.758 235.787 340.81 235.991 338.506 236.049ZM340.358 167.895C338.9 167.895 338.666 167.706 339.614 167.429C340.362 167.176 341.172 167.176 341.919 167.429C342.313 167.691 341.613 167.895 340.344 167.895H340.358ZM352.289 168.376C350.726 168.569 349.139 168.358 347.68 167.764C346.79 166.875 348.745 166.817 353.091 167.633C356.009 168.157 356.009 168.201 352.275 168.376H352.289ZM648.992 174.305C637.076 174.218 617.02 174.203 604.433 174.305C584.728 174.437 561.113 174.466 541.204 174.305C512.747 174.16 497.767 174.043 494.223 173.927C466.16 173.082 454.842 172.47 439.935 171.377C430.308 170.619 421.076 170.007 419.427 170.037C409.976 170.153 382.963 169.192 377.887 168.58C373.784 168.186 369.651 168.186 365.548 168.58C361.566 169.017 359.159 168.988 359.145 168.492C359.145 167.21 354.535 166.671 341.919 166.453C334.48 166.321 329.988 166.555 329.681 167.065C329.375 167.574 328.69 167.414 328.004 166.802C327.318 166.19 325.685 165.928 323.38 166.351C320.857 166.802 320.463 166.744 321.732 166.103C323.001 165.462 322.534 165.273 319.296 165.331C313.695 165.447 309.509 164.777 310.297 163.874C310.647 163.466 308.095 163.218 304.623 163.306C297.622 163.495 277.464 162.548 274.62 161.849C273.395 161.572 273.978 161.222 276.385 160.756L279.988 160.086H276.21C274.475 160.176 272.743 159.846 271.163 159.124C270.142 158.352 271.309 158.192 276.706 158.381C281.767 158.542 283.459 158.906 283.211 159.751C282.963 160.596 283.299 160.669 284.422 160.013C285.545 159.357 288.798 159.299 293.596 159.561C301.589 159.998 305.017 160.843 299.431 161.018C297.549 161.018 296.513 161.441 296.922 161.892C297.33 162.344 299.956 162.621 302.756 162.548C310.049 162.373 316.919 163.058 316.19 163.903C315.84 164.296 317.356 164.544 319.544 164.457C322.855 164.326 323.118 164.194 321.09 163.67C319.063 163.145 319.632 163 323.468 162.869C326.998 162.737 327.844 162.869 326.502 163.524C325.16 164.18 326.808 164.18 331.33 163.801C336.946 163.519 342.574 163.519 348.191 163.801C353.835 164.078 364.687 164.486 372.315 164.719C379.944 164.952 392.736 165.36 400.641 165.637C408.546 165.914 418.917 166.176 423.555 166.263C428.193 166.351 434.509 166.54 437.587 166.729C441.306 166.948 443.421 166.729 444.034 166.074C444.646 165.418 445.127 165.345 445.755 165.986C446.382 166.627 457.044 166.861 476.647 166.89C493.158 166.89 509.392 167.181 512.718 167.502C516.043 167.822 527.697 167.997 538.622 167.88C549.547 167.764 556.315 167.589 553.66 167.487C551.208 167.431 548.767 167.148 546.367 166.642C544.574 166.185 542.751 165.854 540.912 165.651C536.77 165.229 618.406 164.355 636.026 164.631C645.769 164.777 659.086 164.631 740.182 163.626C762.674 163.335 775.669 163.481 776.647 164.02C777.624 164.559 778.543 164.559 779.316 163.67C779.899 163.029 780.395 162.898 780.424 163.393C780.453 163.888 783.341 164.588 786.813 164.967C792.005 165.535 790.197 165.651 776.909 165.593C767.954 165.593 746.279 165.841 728.776 166.22C711.273 166.598 690.649 166.875 683.035 166.831C675.086 166.831 671.498 166.948 674.605 167.225L680.045 167.691L674.634 168.084C671.717 168.288 679.258 168.478 691.51 168.492C723.307 168.492 772.008 169.6 795.171 170.809L807.846 171.464L788.242 171.989C777.463 172.28 768.479 172.411 768.289 172.28C768.099 172.149 746.031 172.615 719.281 173.286C692.531 173.956 660.85 174.393 648.978 174.305H648.992Z" fill="#205080"/>
<path d="M583.969 129.724C582.566 129.554 581.147 129.588 579.754 129.826C578.602 130.059 579.564 130.205 581.883 130.146C584.202 130.088 585.136 129.884 583.969 129.724Z" fill="#205080"/>
<path d="M780.935 131.763C785.836 132.259 787.892 132.157 787.878 131.428C787.863 130.7 779.462 130.044 778.732 130.875C778.441 131.21 779.432 131.603 780.935 131.763Z" fill="#205080"/>
<path d="M746.235 129.068C748.233 129.068 749.152 128.835 748.365 128.646C747.169 128.429 745.944 128.429 744.748 128.646C743.581 128.952 744.252 129.112 746.235 129.068Z" fill="#205080"/>
<path d="M396.849 124.581C400.16 124.581 401.647 124.318 400.16 124.158C398.151 124.026 396.134 124.08 394.136 124.318C392.283 124.479 393.509 124.581 396.849 124.581Z" fill="#205080"/>
<path d="M792.676 131.224C792.676 130.773 791.845 130.437 790.853 130.467C789.861 130.496 789.059 130.875 789.074 131.312C789.088 131.749 789.905 132.098 790.897 132.069C791.889 132.04 792.691 131.661 792.676 131.224Z" fill="#205080"/>
<path d="M275.495 125.834C274.743 125.581 273.929 125.581 273.176 125.834C272.228 126.111 272.52 126.3 273.92 126.3C275.32 126.3 275.904 126.038 275.495 125.834Z" fill="#205080"/>
<path d="M564.089 120.356C563.259 119.817 562.275 119.567 561.288 119.642C559.523 119.642 559.509 119.802 561.084 120.443C563.476 121.39 565.066 121.347 564.089 120.356Z" fill="#205080"/>
<path d="M526.18 121.114C529.812 121.012 531.3 120.822 529.477 120.691C527.268 120.567 525.054 120.626 522.855 120.866C521.046 121.099 522.534 121.201 526.18 121.114Z" fill="#205080"/>
<path d="M505.352 120.603C504.605 120.35 503.795 120.35 503.047 120.603C502.099 120.895 502.391 121.07 503.791 121.07C505.192 121.07 505.76 120.866 505.352 120.603Z" fill="#205080"/>
<path d="M296.441 115.33C299.518 115.257 298.541 114.834 294.107 114.281C291.452 113.96 290.971 114.048 292.313 114.601C293.637 115.077 295.033 115.323 296.441 115.33Z" fill="#205080"/>
<path d="M322.549 128.617C321.804 128.349 320.989 128.349 320.244 128.617C319.296 128.893 319.588 129.083 320.988 129.083C322.389 129.083 322.957 128.864 322.549 128.617Z" fill="#205080"/>
<path d="M297.199 126.868C296.452 126.615 295.642 126.615 294.894 126.868C293.946 127.145 294.238 127.334 295.638 127.334C297.038 127.334 297.666 127.13 297.199 126.868Z" fill="#205080"/>
<path d="M562.017 130.583C566.656 130.452 568.391 130.263 565.897 130.161C563.085 130.066 560.269 130.144 557.467 130.394C555.337 130.613 557.379 130.7 562.017 130.583Z" fill="#205080"/>
<path d="M283.357 126.388C282.368 126.162 281.341 126.162 280.353 126.388C279.536 126.635 280.221 126.796 281.811 126.752C283.401 126.708 284.203 126.592 283.357 126.388Z" fill="#205080"/>
<path d="M312.908 128.063C312.156 127.81 311.341 127.81 310.589 128.063C309.641 128.34 309.932 128.529 311.333 128.529C312.733 128.529 313.316 128.325 312.908 128.063Z" fill="#205080"/>
<path d="M496.965 130.146C493.971 129.722 490.941 129.595 487.922 129.768L481.3 130.03L488.593 130.365C498.949 130.86 499.678 130.846 496.965 130.146Z" fill="#205080"/>
<path d="M515.328 129.913C513.925 129.748 512.505 129.787 511.113 130.03C509.961 130.248 510.909 130.394 513.228 130.336C515.547 130.277 516.452 130.088 515.328 129.913Z" fill="#205080"/>
<path d="M422.592 130.802C421.845 130.549 421.035 130.549 420.288 130.802C419.325 131.094 419.617 131.268 421.032 131.268C422.446 131.268 423.001 131.064 422.592 130.802Z" fill="#205080"/>
<path d="M467.196 132.04C466.448 131.787 465.638 131.787 464.891 132.04C463.943 132.317 464.235 132.507 465.635 132.507C467.035 132.507 467.604 132.303 467.196 132.04Z" fill="#205080"/>
<path d="M605.075 67.1786C609.377 66.5667 608.24 66.4792 599.415 66.7852C593.333 66.9892 589.278 67.368 590.401 67.6448C593.114 68.2858 598.409 68.1256 605.075 67.1786Z" fill="#205080"/>
<path d="M476.618 61.6565C480.011 61.9841 483.421 62.1009 486.828 62.0061C493.392 61.8313 493.406 61.8313 488.607 61.2922C485.214 60.9749 481.805 60.8582 478.397 60.9426C473.511 61.1174 473.336 61.1903 476.618 61.6565Z" fill="#205080"/>
<path d="M1403.98 182.858C1405.44 181.546 1405.44 181.517 1403.51 182.566C1402.74 182.908 1402.04 183.404 1401.46 184.023C1401.47 184.635 1402.45 184.183 1403.98 182.858Z" fill="#205080"/>
<path d="M1376.57 169.148C1375.76 169.396 1376.43 169.556 1378.03 169.512C1379.64 169.468 1380.35 169.264 1379.49 169.075C1378.52 168.886 1377.53 168.911 1376.57 169.148Z" fill="#205080"/>
<path d="M1391.84 166.832C1395.17 167.677 1396.09 167.662 1396.06 166.715C1396.06 166.278 1394.6 165.972 1392.73 166.059C1389.8 166.234 1389.7 166.322 1391.84 166.832Z" fill="#205080"/>
<path d="M1372.94 169.294C1372.19 169.026 1371.37 169.026 1370.62 169.294C1369.67 169.571 1369.97 169.745 1371.37 169.76C1372.77 169.775 1373.35 169.541 1372.94 169.294Z" fill="#205080"/>
<path d="M1370.65 163.408C1370.65 162.971 1370.1 162.621 1369.43 162.65C1368.75 162.679 1368.23 163.029 1368.24 163.481C1368.26 163.932 1368.81 164.267 1369.48 164.253C1370.15 164.238 1370.68 163.918 1370.65 163.408Z" fill="#205080"/>
<path d="M1255.13 57.3153C1252.35 56.6971 1249.52 56.3555 1246.67 56.2954C1233.71 55.6981 1209.83 54.3577 1207.44 54.0955C1203.06 53.6147 1171.57 52.6386 1144.15 52.2015L1106.62 51.5459C1096.91 51.3565 1079.84 51.5459 1068.7 51.881L1048.42 52.5511L1074.31 52.4346C1128.28 52.1869 1168.3 53.3962 1210.54 56.5285C1217.51 57.053 1229.5 57.5921 1237.09 57.7232C1258.14 58.102 1257.2 58.1166 1255.13 57.3153Z" fill="#205080"/>
<path d="M1274.91 8.93105C1274.16 8.67793 1273.35 8.67793 1272.61 8.93105C1271.64 9.20786 1271.93 9.39726 1273.35 9.39726C1274.76 9.39726 1275.27 9.19329 1274.91 8.93105Z" fill="#205080"/>
<path d="M1305.18 23.0629C1306.33 23.5768 1307.58 23.8266 1308.84 23.7938C1310.11 23.761 1311.34 23.4466 1312.47 22.8735C1312.89 22.3927 1311.42 22.1013 1308.82 22.1742C1306.23 22.247 1304.71 22.5967 1305.18 23.0629Z" fill="#205080"/>
<path d="M1231.15 61.744C1233.47 61.744 1234.41 61.4963 1233.25 61.3215C1231.85 61.1562 1230.43 61.1954 1229.04 61.438C1227.91 61.6711 1228.86 61.8022 1231.15 61.744Z" fill="#205080"/>
<path d="M1313.18 101.095L1318.56 99.7549L1310.15 100.454C1306.93 100.592 1303.74 101.08 1300.62 101.911C1298.83 103.135 1307.19 102.581 1313.18 101.095Z" fill="#205080"/>
<path d="M1281.12 115.067C1282.79 115.067 1283.46 114.834 1282.58 114.63C1281.59 114.412 1280.56 114.412 1279.56 114.63C1278.79 114.951 1279.48 115.111 1281.12 115.067Z" fill="#205080"/>
<path d="M1298.49 112.052C1297.5 112.328 1296.7 112.693 1296.72 112.867C1296.73 113.042 1297.53 113.159 1298.52 113.144C1299.52 113.13 1300.32 112.736 1300.3 112.314C1300.29 111.891 1299.47 111.76 1298.49 112.052Z" fill="#205080"/>
<path d="M1293.59 91.5962C1293.59 91.1591 1291.28 90.8969 1288.46 91.028L1283.35 91.2757L1287.58 91.7565L1292.72 92.3101C1292.82 92.329 1292.93 92.3249 1293.04 92.298C1293.14 92.2711 1293.24 92.2221 1293.32 92.1543C1293.4 92.0864 1293.47 92.0014 1293.52 91.9051C1293.57 91.8088 1293.59 91.7034 1293.59 91.5962Z" fill="#205080"/>
<path d="M1322.71 87.8667C1321.54 88.0998 1322.21 88.2601 1324.17 88.2309C1326.12 88.2018 1327.08 87.9978 1326.28 87.8084C1325.1 87.6144 1323.89 87.6342 1322.71 87.8667Z" fill="#205080"/>
<path d="M1279.71 108.686C1281.37 108.686 1282.04 108.438 1281.17 108.249C1280.17 108.023 1279.14 108.023 1278.15 108.249C1277.37 108.555 1278.06 108.729 1279.71 108.686Z" fill="#205080"/>
<path d="M1289.76 12.3983C1287.72 12.9082 1288.81 12.9811 1293.29 12.6023C1295.94 12.503 1298.56 12.0121 1301.06 11.1453C1302.42 10.1109 1295.64 10.9414 1289.76 12.3983Z" fill="#205080"/>
<path d="M1007.99 22.2909C1007.04 22.5677 1007.33 22.7571 1008.73 22.7571C1010.13 22.7571 1010.7 22.5532 1010.3 22.2909C1009.55 22.0228 1008.74 22.0228 1007.99 22.2909Z" fill="#205080"/>
<path d="M1168.99 11.6553C1168.17 11.903 1168.86 12.0778 1170.45 12.0341C1172.04 11.9904 1172.77 11.7864 1171.91 11.5825C1170.94 11.4027 1169.94 11.4275 1168.99 11.6553Z" fill="#205080"/>
<path d="M1175.73 30.7265C1174.78 31.0179 1175.07 31.1927 1176.47 31.1927C1177.87 31.1927 1178.44 30.9887 1178.03 30.7411C1177.29 30.4742 1176.47 30.4691 1175.73 30.7265Z" fill="#205080"/>
<path d="M1153.92 10.4604C1152.73 10.2437 1151.51 10.2437 1150.32 10.4604C1149.15 10.6935 1149.82 10.8684 1151.78 10.8247C1153.73 10.7809 1154.74 10.6498 1153.92 10.4604Z" fill="#205080"/>
<path d="M1164.76 10.9416C1163.76 10.7444 1162.74 10.7743 1161.75 11.029C1160.92 11.2621 1161.61 11.437 1163.21 11.3933C1164.82 11.3496 1165.59 11.1747 1164.76 10.9416Z" fill="#205080"/>
<path d="M1189.22 31.4546C1194.19 31.3235 1196.22 31.1341 1193.73 31.0321C1190.71 30.9278 1187.7 31.0056 1184.7 31.2652C1182.23 31.4983 1184.26 31.5858 1189.22 31.4546Z" fill="#205080"/>
<path d="M1161.01 33.9317C1162.94 33.9317 1162.82 33.7423 1160.38 33.2906C1156.24 32.5185 1153.09 32.6059 1156.17 33.3926C1157.75 33.7723 1159.38 33.9534 1161.01 33.9317Z" fill="#205080"/>
<path d="M1076.92 22.5967C1080.57 22.7715 1089.25 22.8298 1096.19 22.7278L1108.84 22.5238L1103.38 21.4749C1098.4 20.708 1093.33 20.5954 1088.31 21.1398L1074.49 22.0722C1071.35 22.2033 1071.96 22.349 1076.92 22.5967Z" fill="#205080"/>
<path d="M1250.26 37.9528C1252.91 37.9528 1254.13 37.7051 1252.97 37.5303C1251.37 37.3686 1249.75 37.4078 1248.16 37.6469C1246.67 37.88 1247.62 38.0111 1250.26 37.9528Z" fill="#205080"/>
<path d="M1223.12 0.305725C1223.12 -0.46644 1208.95 0.407706 1207.6 1.25272C1210.1 1.51366 1212.62 1.54779 1215.12 1.3547C1219.92 1.22358 1223.13 0.7428 1223.12 0.305725Z" fill="#205080"/>
<path d="M1200.52 41.5366C1199.55 42.1631 1218.03 41.2744 1222.68 40.4585C1225.93 39.8903 1223.25 39.8757 1214.25 40.4585C1206.95 40.8956 1200.8 41.4055 1200.52 41.5803V41.5366Z" fill="#205080"/>
<path d="M1016.28 54.9987C1015.46 55.2464 1016.13 55.4066 1017.73 55.3629C1019.34 55.3192 1020.05 55.1153 1019.19 54.9113C1018.23 54.7341 1017.23 54.7639 1016.28 54.9987Z" fill="#205080"/>
<path d="M1029.59 23.8499C1034.78 24.0539 1039.44 24.2433 1039.95 24.3016C1040.46 24.3599 1040.84 24.0539 1040.82 23.646C1040.81 23.238 1037.41 22.8301 1033.27 22.7136C1029.13 22.597 1023.83 22.3056 1021.5 22.0579C1018.17 21.7083 1017.57 21.8103 1018.7 22.5533C1019.5 23.0778 1024.39 23.6605 1029.59 23.8499Z" fill="#205080"/>
<path d="M1126.76 45.6744C1125.95 45.9221 1126.63 46.0824 1128.22 46.0387C1129.81 45.995 1130.55 45.8056 1129.68 45.6016C1128.71 45.4151 1127.72 45.44 1126.76 45.6744Z" fill="#205080"/>
<path d="M1137.51 4.44378C1136.56 4.72059 1136.86 4.90999 1138.26 4.90999C1139.66 4.90999 1140.24 4.70602 1139.83 4.44378C1139.08 4.19062 1138.26 4.19062 1137.51 4.44378Z" fill="#205080"/>
<path d="M1221.18 32.3435C1223.16 32.3435 1224.09 32.1104 1223.29 31.921C1222.1 31.7041 1220.87 31.7041 1219.67 31.921C1218.51 32.2124 1219.18 32.3726 1221.18 32.3435Z" fill="#205080"/>
<path d="M571.279 67.9358L575.655 67.7464L572.184 67.1491C570.273 66.814 562.776 66.4935 555.527 66.4206C532.35 66.1875 507.394 65.7504 490.664 65.2842C481.723 65.022 471.703 65.0074 468.392 65.2842C460.967 65.7941 519.442 67.2365 553.295 67.3822C557.675 67.2991 562.057 67.4402 566.422 67.8047C568.029 68.0574 569.661 68.1015 571.279 67.9358Z" fill="#205080"/>
<path d="M383.284 61.569C384.932 61.569 385.603 61.3214 384.742 61.1174C383.746 60.9275 382.721 60.9573 381.738 61.2048C380.936 61.4525 381.621 61.6128 383.284 61.569Z" fill="#205080"/>
<path d="M374.62 61.3798C373.672 61.6566 373.964 61.8314 375.364 61.8314C376.764 61.8314 377.333 61.6275 376.924 61.3798C376.18 61.1117 375.365 61.1117 374.62 61.3798Z" fill="#205080"/>
<path d="M437.689 64.6145C441.284 65.1583 444.919 65.402 448.555 65.3429C454.098 65.4449 458.853 65.6634 459.144 65.8237C459.844 66.2171 460.953 65.3575 460.282 64.935C459.421 64.3522 436.901 64.0463 437.689 64.6145Z" fill="#205080"/>
<path d="M398.643 62.4143C397.893 62.1464 397.073 62.1464 396.324 62.4143C395.375 62.6912 395.667 62.866 397.067 62.8806C398.468 62.8951 399.051 62.662 398.643 62.4143Z" fill="#205080"/>
</g>
<defs>
<clipPath id="clip0_377_36">
<rect width="1405" height="257" fill="white"/>
</clipPath>
</defs>
</svg>
