<svg width="89" height="89" viewBox="0 0 89 89" fill="none" xmlns="http://www.w3.org/2000/svg">
<g clip-path="url(#clip0_74_35)">
<path d="M12.1075 0L2.63608 41.0401L0 84.7525L9.74869 88.0557L18.7098 86.0103L25.6335 84.7525H28.5027L36.3627 85.8536L42.6113 83.6515L52.8342 84.7525L64.5881 79.8782H80.6658L81.6101 78.1503L78.4235 70.7604L87.899 58.9663L82.5545 41.671L85.5 38.9948L89 27.2047L83.338 24.649L84.5958 15.3705H72.0182L66.3562 17.8458L64.5881 15.3705L58.5363 16.355L57.0777 5.03106L47.9599 1.10105L12.1075 0Z" fill="url(#paint0_linear_74_35)"/>
<path d="M13.5622 2.43918L4.91455 40.0958L10.5765 39.2921L15.0571 28.2857L19.3005 28.5991L18.0427 51.7131L22.3666 54.7791L27.5584 10.7533L46.3324 3.85365L13.5622 2.43918ZM22.3666 8.41457L21.0726 24.4521L15.6839 22.6438L18.8987 7.07643L26.4493 6.27274L22.3666 8.41457Z" fill="white"/>
<path d="M30.7048 11.4003L27.8718 40.0958L36.0493 40.6463L36.7566 19.5778L44.8537 16.7488V10.2229L37.4638 12.5817L37.5442 8.64764L30.7048 11.4003Z" fill="white"/>
<path d="M48.864 3.69696V18.4767L40.14 20.6788L39.272 28.2254L47.2928 26.8913L48.864 50.7125H60.1879L57.7487 26.8109L64.5881 26.2604L63.8045 17.5324L56.5713 18.7902L55.627 6.28884L48.864 3.69696Z" fill="white"/>
<path d="M68.1283 19.1076L67.0273 29.7966L70.1697 31.4482L65.6891 39.1555L74.8873 41.0401L77.0894 34.5946L83.4586 37.5803L85.8938 29.3264L80.9431 26.8109L81.807 18.32L73.079 17.8458L72.6852 23.0376L68.1283 19.1076Z" fill="white"/>
<path d="M4.91455 47.329L9.63218 48.1166L10.4961 66.75L17.9664 65.8057V56.6879L23.0778 59.123L24.416 82.3937L18.6736 83.1813L18.8303 71.6244L10.4198 73.9832V84.7525L2.63611 82.0803L4.91455 47.329Z" fill="white"/>
<path d="M28.5026 53.3847L34.7915 54.7992L35.8121 43.9495L29.5233 46.465L28.5026 53.3847Z" fill="white"/>
<path d="M29.1295 59.3601L28.5026 81.9236L36.8368 82.6308L34.0842 59.3601L28.5026 57.0013L29.1295 59.3601Z" fill="white"/>
<path d="M40.5298 48.9042L43.5196 80.4287L52.9548 81.6865L49.1011 66.5129L56.9612 62.0324L58.5364 63.5272L58.1426 53.3847L49.1011 57.0013L46.0351 48.9042H40.5298Z" fill="white"/>
<path d="M71.8213 73.1192L70.1697 63.0731L79.2111 66.0628L85.5 57.4152L80.5493 41.6911L75.7915 42.3984L62.0726 52.8463L63.7241 78.1623H79.3679L76.4706 72.5687L71.8213 73.1192ZM74.8873 50.7125L78.4235 58.9663L71.3471 57.8653L70.3264 55.8199L74.8873 50.7125Z" fill="white"/>
</g>
<defs>
<linearGradient id="paint0_linear_74_35" x1="9.35488" y1="5.75438" x2="62.4583" y2="77.1738" gradientUnits="userSpaceOnUse">
<stop stop-color="#3A84C1"/>
<stop offset="0.23" stop-color="#3880BC"/>
<stop offset="0.49" stop-color="#3376AF"/>
<stop offset="0.76" stop-color="#2A6499"/>
<stop offset="1" stop-color="#1F507F"/>
</linearGradient>
<clipPath id="clip0_74_35">
<rect width="89" height="88.0557" fill="white"/>
</clipPath>
</defs>
</svg>
